<svg class="icon" xmlns="http://www.w3.org/2000/svg" viewBox="0 0 368 266.6"><defs><style>.a{fill:#ced0e8}.b{fill:none}</style></defs><title>formos_icon_3</title><path class="a" d="M366.94 12.92h-339c-.83 0-1.94-.63-1.94.19v107.81H14.44C6.72 120.92 0 125.44 0 132.61v95c0 7.46 7 15.31 14.44 15.31h11.34c1.36 6 6.68 11 13 11h26.29c6.35 0 11.67-5 13-11h75.34c4.41 0 8.3-3 10.65-6h120.88c.83 0 1.06-2 1.06-2.81v-12c0-.83-.23-.19-1.06-.19H211v-16h155.94c.83 0 1.06-2 1.06-2.81v-190c0-.83-.23-.19-1.06-.19zm-301.87 238H38.81c-5.34 0-9.75-5-10.33-10.23 0-.36-.24-1-.25-1.22s-.23-.72-.23-.86v-65.5c0-5.79 5.15-9.19 10.94-9.19h26.13c4.81 0 8.64 2.67 9.82 7.15a6.56 6.56 0 0 1 .11 2v65.5c0 .07.23 1 .24 1.09-.1 5.74-4.5 11.26-10.17 11.26zM163 203.11v24.5a11.86 11.86 0 0 1 .13 1.41c0 .07.09.15.08.22a11.73 11.73 0 0 1-1.34 4.14v.74c-1.77 3.09-4.87 5.8-8.42 5.8H78.6a3.21 3.21 0 0 0-.6-1.61v-65.2c0-7.57-5.27-12.19-12.56-12.19H38.81c-7.37 0-13.81 4.75-13.81 12.19v66.81H14.44C8.68 239.92 3 233.37 3 227.61v-95c0-5.51 5.37-8.69 11.44-8.69h139c5.79 0 9.56 2.9 9.56 8.69zm120 21.81v9H165.57c.28-1 .5-2.24.64-3.07v-.66c0-.31-.13-.77-.1-1.09s-.16-1-.16-1.49v-2.69h19.94c.83 0 1.06-2 1.06-2.81v-16.19h21v16.19c0 .83 1.11 2.81 1.94 2.81zm-117-3v-16h18v16zm199-19H166v-70.31c0-7.41-5.15-11.69-12.56-11.69H29v-105h336z"/><path class="b" d="M0 0h368v266.6H0z"/></svg>