<svg class="icon" xmlns="http://www.w3.org/2000/svg" viewBox="0 0 312.1 266.6"><defs><style>.a{fill:#ced0e8}.b{fill:none}</style></defs><title>formos_icon_more</title><path class="a" d="M234.3 176.05a2.35 2.35 0 0 1-.8-.2l-47.2-28.2a1 1 0 0 1-.5-.6l-1-1.9a1.85 1.85 0 0 1-.2-.7v-.4l-.7-.4a1.71 1.71 0 0 1-.7-1.3v-.7l-.9-1.1a1.93 1.93 0 0 1-.3-1l.2-1.8-.6-2.2c0-.1-.1-.3-.1-.4v-1.4a1.27 1.27 0 0 1 .1-.6l.2-.6v-2.3a.75.75 0 0 1 .1-.5l.8-2 .2-2.4v-.1l.2-1.2a1.08 1.08 0 0 1 .3-.7l.8-1.1.3-1.4c0-.2.1-.3.2-.5l1.2-2.1a1.21 1.21 0 0 1 .5-.5l47.2-28a1.88 1.88 0 0 1 .8-.2 3.09 3.09 0 0 1 .8.2l47.2 28a1.21 1.21 0 0 1 .5.5l1.2 2.1c.1.1.1.3.2.5l.3 1.4.8 1.1c.2.2.2.4.3.7l.2 1.2v.1l.2 2.4.8 2a1.09 1.09 0 0 1 .1.5v2.3l.2.6a1.27 1.27 0 0 1 .1.6v1.4a.6.6 0 0 1-.1.4l-.6 2.2.2 1.8a1.69 1.69 0 0 1-.3 1l-.9 1.1v.7a1.71 1.71 0 0 1-.7 1.3l-.7.4v.4a1.45 1.45 0 0 1-.2.7l-1 1.9a2.65 2.65 0 0 1-.5.6l-47.2 28.2a2.17 2.17 0 0 1-1 .2zm-46.1-30.7l46.1 27.5 46.1-27.5.7-1.2v-.8a1.71 1.71 0 0 1 .7-1.3l.7-.4v-.4a1.4 1.4 0 0 1 .3-.9l.9-1.1-.1-1.5a.75.75 0 0 1 .1-.5l.6-2.2v-.9l-.2-.6a1.27 1.27 0 0 1-.1-.6v-2.3l-.8-2a.6.6 0 0 1-.1-.4l-.2-2.5-.1-.8-.8-1.1-.3-.6-.3-1.5-.9-1.5-46.1-27.4-46.1 27.4-.9 1.5-.3 1.5a.86.86 0 0 1-.3.6l-.8 1.1-.1.8-.2 2.5a.6.6 0 0 1-.1.4l-.8 2v2.3a1.27 1.27 0 0 1-.1.6l-.2.6v.9l.6 2.2a1.09 1.09 0 0 1 .1.5l-.1 1.5.9 1.1a1.61 1.61 0 0 1 .3.9v.4l.7.4a1.71 1.71 0 0 1 .7 1.3v.8zm-8.5-28.2a2.35 2.35 0 0 1-.8-.2l-47.2-28.2a1 1 0 0 1-.5-.6l-1-1.9a1.85 1.85 0 0 1-.2-.7v-.4l-.7-.4a1.71 1.71 0 0 1-.7-1.3v-.7l-.9-1.1a1.93 1.93 0 0 1-.3-1l.1-1.8-.6-2.2c0-.1-.1-.3-.1-.4v-1.4a1.27 1.27 0 0 1 .1-.6l.2-.6v-2.3a.75.75 0 0 1 .1-.5l.8-2 .2-2.4v-.1l.2-1.2a1.08 1.08 0 0 1 .3-.7l.8-1.1.3-1.4c0-.2.1-.3.2-.5l1.2-2.1a1.21 1.21 0 0 1 .5-.5l47.2-28a1.88 1.88 0 0 1 .8-.2 2.35 2.35 0 0 1 .8.2l47.2 28a1.21 1.21 0 0 1 .5.5l1.2 2.1c.1.1.1.3.2.5l.3 1.4.8 1.1c.2.2.2.4.3.7l.2 1.2v.1l.2 2.4.8 2a1.09 1.09 0 0 1 .1.5v2.3l.2.6a1.27 1.27 0 0 1 .1.6v1.4a.6.6 0 0 1-.1.4l-.6 2.2.2 1.8a1.69 1.69 0 0 1-.3 1l-.9 1.1v.7a1.71 1.71 0 0 1-.7 1.3l-.7.4v.4a1.45 1.45 0 0 1-.2.7l-1 1.9a2.65 2.65 0 0 1-.5.6l-47.3 28.2a2.35 2.35 0 0 1-.8.2zm-46.1-30.8l46.1 27.5 46.1-27.5.7-1.2v-.8a1.71 1.71 0 0 1 .7-1.3l.7-.4v-.4a1.4 1.4 0 0 1 .3-.9l.9-1.1-.1-1.5a.75.75 0 0 1 .1-.5l.6-2.2v-.9l-.2-.6a1.27 1.27 0 0 1-.1-.6v-2.3l-.8-2a.6.6 0 0 1-.1-.4l-.2-2.5-.1-.8-.8-1.1-.3-.6-.3-1.5-.9-1.5-46.1-27.4-46.1 27.4-.9 1.5-.3 1.5a.86.86 0 0 1-.3.6l-.8 1.1-.1.8-.2 2.5a.6.6 0 0 1-.1.4l-.8 2v2.3a1.27 1.27 0 0 1-.1.6l-.2.6V76l.6 2.2a4.33 4.33 0 0 0 .1.5l-.1 1.5.8 1.1a1.61 1.61 0 0 1 .3.9v.4l.7.4a1.71 1.71 0 0 1 .7 1.3v.8zm-7.4 89.7a2.35 2.35 0 0 1-.8-.2l-47.2-28.2a1 1 0 0 1-.5-.6l-1-1.9a1.85 1.85 0 0 1-.2-.7v-.4l-.7-.4a1.71 1.71 0 0 1-.7-1.3v-.7l-.9-1.1a1.93 1.93 0 0 1-.3-1l.2-1.8-.6-2.2c0-.1-.1-.3-.1-.4v-1.4a1.27 1.27 0 0 1 .1-.6l.2-.6v-2.3a.75.75 0 0 1 .1-.5l.8-2 .2-2.4v-.1l.2-1.2a1.08 1.08 0 0 1 .3-.7l.8-1.1.3-1.4c0-.2.1-.3.2-.5l1.2-2.1a1.21 1.21 0 0 1 .5-.5l47.2-28a1.88 1.88 0 0 1 .8-.2 2.35 2.35 0 0 1 .8.2l47.2 28a1.21 1.21 0 0 1 .5.5l1.2 2.1c.1.1.1.3.2.5l.3 1.4.8 1.1c.2.2.2.4.3.7l.2 1.2v.1l.2 2.4.8 2a1.09 1.09 0 0 1 .1.5v2.3l.2.6a1.27 1.27 0 0 1 .1.6v1.4a.6.6 0 0 1-.1.4l-.6 2.2.2 1.8a1.69 1.69 0 0 1-.3 1l-.9 1.1v.7a1.71 1.71 0 0 1-.7 1.3l-.7.4v.4a1.45 1.45 0 0 1-.2.7l-1 1.9a2.65 2.65 0 0 1-.5.6l-47.2 28.2a2.17 2.17 0 0 1-1 .2zm-46.1-30.7l46.1 27.5 46.1-27.5.7-1.2v-.8a1.71 1.71 0 0 1 .7-1.3l.7-.4v-.4a1.4 1.4 0 0 1 .3-.9l.9-1.1-.1-1.5a.75.75 0 0 1 .1-.5l.6-2.2v-.9l-.2-.6a1.27 1.27 0 0 1-.1-.6v-2.3l-.8-2a.6.6 0 0 1-.1-.4l-.2-2.5-.1-.8-.8-1.1-.3-.6-.3-1.5-.9-1.5-46.1-27.4-46.1 27.4-.9 1.5-.3 1.5a.86.86 0 0 1-.3.6l-.8 1.1-.1.8-.2 2.5c0 .2 0 .3-.1.4l-.8 2v2.3a1.27 1.27 0 0 1-.1.6l-.2.6v.9l.6 2.2a4.33 4.33 0 0 0 .1.5l-.1 1.5.9 1.1a1.61 1.61 0 0 1 .3.9v.4l.7.4a1.71 1.71 0 0 1 .7 1.3v.8zm-6.6 90.6a2.35 2.35 0 0 1-.8-.2l-47.2-28.2a1.46 1.46 0 0 1-.7-1.3v-27.3a1.71 1.71 0 0 1 .7-1.3l47.2-28a1.88 1.88 0 0 1 .8-.2 2.35 2.35 0 0 1 .8.2l47.2 28a1.46 1.46 0 0 1 .7 1.3v27.3a1.71 1.71 0 0 1-.7 1.3l-47.2 28.2a2.35 2.35 0 0 1-.8.2zm-45.7-30.5l45.7 27.3 45.7-27.3v-25.6l-45.7-27.1-45.7 27.1z"/><path class="b" d="M0 0h312.1v266.6H0z"/></svg>