<svg class="icon" xmlns="http://www.w3.org/2000/svg" viewBox="0 0 368 266.6"><defs><style>.a{fill:#ced0e8}.b{fill:#07dea6}.c{fill:#fff}.d{fill:#231f20}.e{fill:#a69f84}.f{fill:#7b607b}.g{fill:#f83800}.h{fill:#f9c2ab}.i{fill:#1629ff}.j{fill:#91dbe3}.k{fill:none}</style></defs><title>formos_icon_1</title><path class="a" d="M207 257.85a1.54 1.54 0 0 1 1.5-1.5 1.54 1.54 0 0 1 1.5 1.5 1.54 1.54 0 0 1-1.5 1.5 1.47 1.47 0 0 1-1.5-1.5zm-6.4 0a1.54 1.54 0 0 1 1.5-1.5 1.54 1.54 0 0 1 1.5 1.5 1.54 1.54 0 0 1-1.5 1.5 1.54 1.54 0 0 1-1.45-1.5zm-6.4 0a1.54 1.54 0 0 1 1.5-1.5 1.54 1.54 0 0 1 1.5 1.5 1.54 1.54 0 0 1-1.5 1.5 1.54 1.54 0 0 1-1.45-1.5zm-6.3 0a1.54 1.54 0 0 1 1.5-1.5 1.54 1.54 0 0 1 1.5 1.5 1.54 1.54 0 0 1-1.5 1.5 1.54 1.54 0 0 1-1.45-1.5zm-6.4 0a1.54 1.54 0 0 1 1.5-1.5 1.54 1.54 0 0 1 1.5 1.5 1.54 1.54 0 0 1-1.5 1.5 1.54 1.54 0 0 1-1.45-1.5zm-6.3 0a1.54 1.54 0 0 1 1.5-1.5 1.54 1.54 0 0 1 1.5 1.5 1.54 1.54 0 0 1-1.5 1.5 1.54 1.54 0 0 1-1.45-1.5zm-6.4 0a1.54 1.54 0 0 1 1.5-1.5 1.54 1.54 0 0 1 1.5 1.5 1.54 1.54 0 0 1-1.5 1.5 1.54 1.54 0 0 1-1.45-1.5zm-6.3 0a1.54 1.54 0 0 1 1.5-1.5 1.54 1.54 0 0 1 1.5 1.5 1.54 1.54 0 0 1-1.5 1.5 1.54 1.54 0 0 1-1.45-1.5zm-4.9 1.4a1.54 1.54 0 0 1-1.5-1.5 1.54 1.54 0 0 1 1.5-1.5 1.54 1.54 0 0 1 1.5 1.5 1.47 1.47 0 0 1-1.5 1.5zm53.8-1.7a1.64 1.64 0 0 1 .8-2 1.48 1.48 0 0 1 1.9.8 1.45 1.45 0 0 1-.9 1.9 1.09 1.09 0 0 1-.5.1 1.17 1.17 0 0 1-1.25-.8zm-60.6-.3a1.58 1.58 0 0 1-.5-2.1 1.58 1.58 0 0 1 2.1-.5 1.58 1.58 0 0 1 .5 2.1 1.46 1.46 0 0 1-1.3.7.83.83 0 0 1-.75-.2zm66.1-2.8a1.38 1.38 0 0 1-.2-2.1 1.46 1.46 0 0 1 2.1-.2 1.46 1.46 0 0 1 .2 2.1 1.43 1.43 0 0 1-1.2.6 3.55 3.55 0 0 1-.85-.4zm-70.9-2.3a1.49 1.49 0 0 1 .6-2 1.49 1.49 0 0 1 2 .6 1.49 1.49 0 0 1-.6 2 1.85 1.85 0 0 1-.7.2 1.56 1.56 0 0 1-1.3-.8zm74.1-3.2a1.55 1.55 0 0 1-1.3-1.7 1.55 1.55 0 0 1 1.7-1.3 1.55 1.55 0 0 1 1.3 1.7 1.5 1.5 0 0 1-1.5 1.3h-.2zm-75.7-3.6a1.54 1.54 0 0 1 1.5-1.5 1.54 1.54 0 0 1 1.5 1.5 1.54 1.54 0 0 1-1.5 1.5 1.54 1.54 0 0 1-1.45-1.5zm74.6-4.2a1.54 1.54 0 0 1 1.5-1.5 1.54 1.54 0 0 1 1.5 1.5 1.54 1.54 0 0 1-1.5 1.5 1.47 1.47 0 0 1-1.5-1.5zm-74.6-2.2a1.54 1.54 0 0 1 1.5-1.5 1.54 1.54 0 0 1 1.5 1.5 1.54 1.54 0 0 1-1.5 1.5 1.54 1.54 0 0 1-1.45-1.5zm74.6-4.2a1.54 1.54 0 0 1 1.5-1.5 1.54 1.54 0 0 1 1.5 1.5 1.54 1.54 0 0 1-1.5 1.5 1.42 1.42 0 0 1-1.5-1.5zm-74.6-2.1a1.54 1.54 0 0 1 1.5-1.5 1.54 1.54 0 0 1 1.5 1.5 1.54 1.54 0 0 1-1.5 1.5 1.54 1.54 0 0 1-1.45-1.5zm74.6-4.2a1.54 1.54 0 0 1 1.5-1.5 1.54 1.54 0 0 1 1.5 1.5 1.54 1.54 0 0 1-1.5 1.5 1.47 1.47 0 0 1-1.5-1.5zm-74.6-2.2a1.54 1.54 0 0 1 1.5-1.5 1.54 1.54 0 0 1 1.5 1.5 1.54 1.54 0 0 1-1.5 1.5 1.54 1.54 0 0 1-1.45-1.5zm74.6-4.2a1.54 1.54 0 0 1 1.5-1.5 1.54 1.54 0 0 1 1.5 1.5 1.54 1.54 0 0 1-1.5 1.5 1.42 1.42 0 0 1-1.5-1.5zm-74.6-2.1a1.54 1.54 0 0 1 1.5-1.5 1.54 1.54 0 0 1 1.5 1.5 1.54 1.54 0 0 1-1.5 1.5 1.54 1.54 0 0 1-1.45-1.5zm74.6-4.2a1.54 1.54 0 0 1 1.5-1.5 1.54 1.54 0 0 1 1.5 1.5 1.54 1.54 0 0 1-1.5 1.5 1.47 1.47 0 0 1-1.5-1.5zm-74.6-2.2a1.54 1.54 0 0 1 1.5-1.5 1.54 1.54 0 0 1 1.5 1.5 1.54 1.54 0 0 1-1.5 1.5 1.54 1.54 0 0 1-1.45-1.5zm74.6-4.2a1.54 1.54 0 0 1 1.5-1.5 1.54 1.54 0 0 1 1.5 1.5 1.54 1.54 0 0 1-1.5 1.5 1.42 1.42 0 0 1-1.5-1.5zm-74.6-2.1a1.54 1.54 0 0 1 1.5-1.5 1.54 1.54 0 0 1 1.5 1.5 1.54 1.54 0 0 1-1.5 1.5 1.54 1.54 0 0 1-1.45-1.5zm74.6-4.2a1.54 1.54 0 0 1 1.5-1.5 1.54 1.54 0 0 1 1.5 1.5 1.54 1.54 0 0 1-1.5 1.5 1.47 1.47 0 0 1-1.5-1.5zm-74.6-2.2a1.54 1.54 0 0 1 1.5-1.5 1.54 1.54 0 0 1 1.5 1.5 1.54 1.54 0 0 1-1.5 1.5 1.54 1.54 0 0 1-1.45-1.5zm74.6-4.2a1.54 1.54 0 0 1 1.5-1.5 1.54 1.54 0 0 1 1.5 1.5 1.54 1.54 0 0 1-1.5 1.5 1.42 1.42 0 0 1-1.5-1.5zm-73.2-.7a1.48 1.48 0 0 1-1.4-1.6 1.54 1.54 0 0 1 1.6-1.4 1.48 1.48 0 0 1 1.4 1.6 1.48 1.48 0 0 1-1.6 1.4zm72.3-4.9a1.54 1.54 0 0 1 .8-2 1.54 1.54 0 0 1 2 .8 1.54 1.54 0 0 1-.8 2 1.27 1.27 0 0 1-.6.1 1.42 1.42 0 0 1-1.35-.9zm-71-1.2a1.48 1.48 0 0 1-.4-2.1 1.48 1.48 0 0 1 2.1-.4 1.48 1.48 0 0 1 .4 2.1 1.69 1.69 0 0 1-1.2.7zm67.5-3.1a1.46 1.46 0 0 1-.3-2.1 1.46 1.46 0 0 1 2.1-.3 1.46 1.46 0 0 1 .3 2.1 1.56 1.56 0 0 1-1.2.6 1.61 1.61 0 0 1-.85-.3zm-63.3-1.7a1.44 1.44 0 0 1 .7-2 1.44 1.44 0 0 1 2 .7 1.44 1.44 0 0 1-.7 2 1.42 1.42 0 0 1-.6.2 1.51 1.51 0 0 1-1.35-.9zm58.2-.3a1.46 1.46 0 0 1-1.3-1.6 1.5 1.5 0 0 1 1.7-1.3 1.46 1.46 0 0 1 1.3 1.6 1.52 1.52 0 0 1-1.5 1.4c-.05 0-.05 0-.15-.1zm-7.7-1.5a1.54 1.54 0 0 1 1.5-1.5 1.54 1.54 0 0 1 1.5 1.5 1.54 1.54 0 0 1-1.5 1.5 1.54 1.54 0 0 1-1.45-1.5zm-6.3 0a1.54 1.54 0 0 1 1.5-1.5 1.54 1.54 0 0 1 1.5 1.5 1.54 1.54 0 0 1-1.5 1.5 1.47 1.47 0 0 1-1.45-1.5zm-6.4 0a1.54 1.54 0 0 1 1.5-1.5 1.54 1.54 0 0 1 1.5 1.5 1.54 1.54 0 0 1-1.5 1.5 1.54 1.54 0 0 1-1.45-1.5zm-6.3 0a1.54 1.54 0 0 1 1.5-1.5 1.54 1.54 0 0 1 1.5 1.5 1.54 1.54 0 0 1-1.5 1.5 1.47 1.47 0 0 1-1.45-1.5zm-6.4 0a1.54 1.54 0 0 1 1.5-1.5 1.54 1.54 0 0 1 1.5 1.5 1.54 1.54 0 0 1-1.5 1.5 1.54 1.54 0 0 1-1.45-1.5zm-6.3 0a1.54 1.54 0 0 1 1.5-1.5 1.54 1.54 0 0 1 1.5 1.5 1.54 1.54 0 0 1-1.5 1.5 1.47 1.47 0 0 1-1.45-1.5zm-6.4 0a1.54 1.54 0 0 1 1.5-1.5 1.54 1.54 0 0 1 1.5 1.5 1.54 1.54 0 0 1-1.5 1.5 1.54 1.54 0 0 1-1.45-1.5zm-6.4 0a1.54 1.54 0 0 1 1.5-1.5 1.54 1.54 0 0 1 1.5 1.5 1.54 1.54 0 0 1-1.5 1.5 1.54 1.54 0 0 1-1.45-1.5zm137.45 74.6a1.54 1.54 0 0 1 1.5-1.5 1.54 1.54 0 0 1 1.5 1.5 1.54 1.54 0 0 1-1.5 1.5 1.54 1.54 0 0 1-1.5-1.5zm-6.4 0a1.54 1.54 0 0 1 1.5-1.5 1.54 1.54 0 0 1 1.5 1.5 1.54 1.54 0 0 1-1.5 1.5 1.54 1.54 0 0 1-1.5-1.5zm-6.3 0a1.54 1.54 0 0 1 1.5-1.5 1.54 1.54 0 0 1 1.5 1.5 1.54 1.54 0 0 1-1.5 1.5 1.54 1.54 0 0 1-1.55-1.5zm-6.4 0a1.54 1.54 0 0 1 1.5-1.5 1.54 1.54 0 0 1 1.5 1.5 1.54 1.54 0 0 1-1.5 1.5 1.54 1.54 0 0 1-1.5-1.5zm-6.3 0a1.54 1.54 0 0 1 1.5-1.5 1.54 1.54 0 0 1 1.5 1.5 1.54 1.54 0 0 1-1.5 1.5 1.54 1.54 0 0 1-1.5-1.5zm-6.4 0a1.54 1.54 0 0 1 1.5-1.5 1.54 1.54 0 0 1 1.5 1.5 1.54 1.54 0 0 1-1.5 1.5 1.54 1.54 0 0 1-1.5-1.5zm-6.3 0a1.54 1.54 0 0 1 1.5-1.5 1.54 1.54 0 0 1 1.5 1.5 1.54 1.54 0 0 1-1.5 1.5 1.47 1.47 0 0 1-1.5-1.5zm-6.4 0a1.54 1.54 0 0 1 1.5-1.5 1.54 1.54 0 0 1 1.5 1.5 1.54 1.54 0 0 1-1.5 1.5 1.54 1.54 0 0 1-1.5-1.5zm-4.9 1.4a1.54 1.54 0 0 1-1.5-1.5 1.54 1.54 0 0 1 1.5-1.5 1.54 1.54 0 0 1 1.5 1.5 1.42 1.42 0 0 1-1.5 1.5zm53.8-1.7a1.59 1.59 0 0 1 .9-2 1.45 1.45 0 0 1 1.9.9 1.48 1.48 0 0 1-.8 1.9 1.09 1.09 0 0 1-.5.1 1.55 1.55 0 0 1-1.5-.9zm-60.5-.3a1.58 1.58 0 0 1-.5-2.1 1.58 1.58 0 0 1 2.1-.5 1.58 1.58 0 0 1 .5 2.1 1.46 1.46 0 0 1-1.3.7.78.78 0 0 1-.8-.2zm66-2.8a1.38 1.38 0 0 1-.2-2.1 1.46 1.46 0 0 1 2.1-.2 1.46 1.46 0 0 1 .2 2.1 1.43 1.43 0 0 1-1.2.6 3.55 3.55 0 0 1-.9-.4zm-70.9-2.3a1.49 1.49 0 0 1 .6-2 1.49 1.49 0 0 1 2 .6 1.49 1.49 0 0 1-.6 2 1.85 1.85 0 0 1-.7.2 1.56 1.56 0 0 1-1.3-.8zm74.2-3.2a1.55 1.55 0 0 1-1.3-1.7 1.55 1.55 0 0 1 1.7-1.3 1.55 1.55 0 0 1 1.3 1.7 1.5 1.5 0 0 1-1.5 1.3h-.2zm-75.8-3.6a1.54 1.54 0 0 1 1.5-1.5 1.54 1.54 0 0 1 1.5 1.5 1.54 1.54 0 0 1-1.5 1.5 1.54 1.54 0 0 1-1.5-1.5zm74.6-4.2a1.54 1.54 0 0 1 1.5-1.5 1.54 1.54 0 0 1 1.5 1.5 1.54 1.54 0 0 1-1.5 1.5 1.54 1.54 0 0 1-1.5-1.5zm-74.6-2.2a1.54 1.54 0 0 1 1.5-1.5 1.54 1.54 0 0 1 1.5 1.5 1.54 1.54 0 0 1-1.5 1.5 1.54 1.54 0 0 1-1.5-1.5zm74.6-4.2a1.54 1.54 0 0 1 1.5-1.5 1.54 1.54 0 0 1 1.5 1.5 1.54 1.54 0 0 1-1.5 1.5 1.47 1.47 0 0 1-1.5-1.5zm-74.6-2.1a1.54 1.54 0 0 1 1.5-1.5 1.54 1.54 0 0 1 1.5 1.5 1.54 1.54 0 0 1-1.5 1.5 1.54 1.54 0 0 1-1.5-1.5zm74.6-4.2a1.54 1.54 0 0 1 1.5-1.5 1.54 1.54 0 0 1 1.5 1.5 1.54 1.54 0 0 1-1.5 1.5 1.54 1.54 0 0 1-1.5-1.5zm-74.6-2.2a1.54 1.54 0 0 1 1.5-1.5 1.54 1.54 0 0 1 1.5 1.5 1.54 1.54 0 0 1-1.5 1.5 1.54 1.54 0 0 1-1.5-1.5zm74.6-4.2a1.54 1.54 0 0 1 1.5-1.5 1.54 1.54 0 0 1 1.5 1.5 1.54 1.54 0 0 1-1.5 1.5 1.47 1.47 0 0 1-1.5-1.5zm-74.6-2.1a1.54 1.54 0 0 1 1.5-1.5 1.54 1.54 0 0 1 1.5 1.5 1.54 1.54 0 0 1-1.5 1.5 1.54 1.54 0 0 1-1.5-1.5zm74.6-4.2a1.54 1.54 0 0 1 1.5-1.5 1.54 1.54 0 0 1 1.5 1.5 1.54 1.54 0 0 1-1.5 1.5 1.54 1.54 0 0 1-1.5-1.5zm-74.6-2.2a1.54 1.54 0 0 1 1.5-1.5 1.54 1.54 0 0 1 1.5 1.5 1.54 1.54 0 0 1-1.5 1.5 1.54 1.54 0 0 1-1.5-1.5zm74.6-4.2a1.54 1.54 0 0 1 1.5-1.5 1.54 1.54 0 0 1 1.5 1.5 1.54 1.54 0 0 1-1.5 1.5 1.47 1.47 0 0 1-1.5-1.5zm-74.6-2.1a1.54 1.54 0 0 1 1.5-1.5 1.54 1.54 0 0 1 1.5 1.5 1.54 1.54 0 0 1-1.5 1.5 1.54 1.54 0 0 1-1.5-1.5zm74.6-4.2a1.54 1.54 0 0 1 1.5-1.5 1.54 1.54 0 0 1 1.5 1.5 1.54 1.54 0 0 1-1.5 1.5 1.54 1.54 0 0 1-1.5-1.5zm-74.6-2.2a1.54 1.54 0 0 1 1.5-1.5 1.54 1.54 0 0 1 1.5 1.5 1.54 1.54 0 0 1-1.5 1.5 1.54 1.54 0 0 1-1.5-1.5zm74.6-4.2a1.54 1.54 0 0 1 1.5-1.5 1.54 1.54 0 0 1 1.5 1.5 1.54 1.54 0 0 1-1.5 1.5 1.47 1.47 0 0 1-1.5-1.5zm-73.1-.7a1.48 1.48 0 0 1-1.4-1.6 1.48 1.48 0 0 1 1.6-1.4 1.48 1.48 0 0 1 1.4 1.6 1.62 1.62 0 0 1-1.6 1.4zm72.2-4.9a1.54 1.54 0 0 1 .8-2 1.54 1.54 0 0 1 2 .8 1.54 1.54 0 0 1-.8 2 1.27 1.27 0 0 1-.6.1 1.51 1.51 0 0 1-1.4-.9zm-71-1.2a1.48 1.48 0 0 1-.4-2.1 1.48 1.48 0 0 1 2.1-.4 1.48 1.48 0 0 1 .4 2.1 1.69 1.69 0 0 1-1.2.7zm67.6-3.1a1.46 1.46 0 0 1-.3-2.1 1.46 1.46 0 0 1 2.1-.3 1.46 1.46 0 0 1 .3 2.1 1.56 1.56 0 0 1-1.2.6 1.4 1.4 0 0 1-.9-.3zm-63.3-1.7a1.44 1.44 0 0 1 .7-2 1.44 1.44 0 0 1 2 .7 1.42 1.42 0 0 1-.7 2 1.45 1.45 0 0 1-.7.2 1.38 1.38 0 0 1-1.3-.9zm58.2-.3a1.46 1.46 0 0 1-1.3-1.6 1.5 1.5 0 0 1 1.7-1.3 1.46 1.46 0 0 1 1.3 1.6 1.52 1.52 0 0 1-1.5 1.4c-.1 0-.2 0-.2-.1zm-7.7-1.5a1.54 1.54 0 0 1 1.5-1.5 1.54 1.54 0 0 1 1.5 1.5 1.54 1.54 0 0 1-1.5 1.5 1.47 1.47 0 0 1-1.5-1.5zm-6.4 0a1.54 1.54 0 0 1 1.5-1.5 1.54 1.54 0 0 1 1.5 1.5 1.54 1.54 0 0 1-1.5 1.5 1.54 1.54 0 0 1-1.5-1.5zm-6.3 0a1.54 1.54 0 0 1 1.5-1.5 1.54 1.54 0 0 1 1.5 1.5 1.54 1.54 0 0 1-1.5 1.5 1.47 1.47 0 0 1-1.5-1.5zm-6.4 0a1.54 1.54 0 0 1 1.5-1.5 1.54 1.54 0 0 1 1.5 1.5 1.54 1.54 0 0 1-1.5 1.5 1.54 1.54 0 0 1-1.5-1.5zm-6.4 0a1.54 1.54 0 0 1 1.5-1.5 1.54 1.54 0 0 1 1.5 1.5 1.54 1.54 0 0 1-1.5 1.5 1.54 1.54 0 0 1-1.5-1.5zm-6.3 0a1.54 1.54 0 0 1 1.5-1.5 1.54 1.54 0 0 1 1.5 1.5 1.54 1.54 0 0 1-1.5 1.5 1.54 1.54 0 0 1-1.5-1.5zm-6.4 0a1.54 1.54 0 0 1 1.5-1.5 1.54 1.54 0 0 1 1.5 1.5 1.54 1.54 0 0 1-1.5 1.5 1.54 1.54 0 0 1-1.5-1.5zm-6.3 0a1.54 1.54 0 0 1 1.5-1.5 1.54 1.54 0 0 1 1.5 1.5 1.54 1.54 0 0 1-1.5 1.5 1.54 1.54 0 0 1-1.5-1.5z"/><path class="b" d="M120.75 257.85h-50.5a12 12 0 0 1-12-12v-50.6a12 12 0 0 1 12-12h50.6a12 12 0 0 1 12 12v50.6a12.19 12.19 0 0 1-12.1 12z"/><path class="c" d="M116.45 206.05v-10.5h-41.9v10.6h15.4v39.4h11.2v-39.5z"/><path class="c" d="M116.45 206.05H101v39.5H89.85v-39.4h-15.4v-10.6h41.9c.1 3.5.1 6.9.1 10.5z"/><path class="d" d="M86.35 221.15v-.2c-.1-.5-.4-.9-.9-.9s-1 .2-1.1.8a1.1 1.1 0 0 0 0 .8 1 1 0 0 0 1.5.6 1.27 1.27 0 0 0 .5-1.1m-1.1 1.7a1.71 1.71 0 0 1-1.7-1.8 1.69 1.69 0 0 1 1.7-1.7 1.71 1.71 0 0 1 1.7 1.8 1.58 1.58 0 0 1-1.7 1.7m-5.1-3.4v-.8a1.13 1.13 0 0 1 1.3-.9c.1 0 .1.1.1.2v.4h-.4a.43.43 0 0 0-.4.4v.7h.9v.6h-.8v2.7h-.7V220h-.6v-.6h.6zm24.8.9V220a1.6 1.6 0 0 0-1.2-1.4 1.73 1.73 0 0 0-1.8.5 1.88 1.88 0 0 0-.4 1.6 1.72 1.72 0 0 0 2.6 1.4 2.14 2.14 0 0 0 .8-1.7m.7 0a2.46 2.46 0 0 1-4.9.3 2.9 2.9 0 0 1 .5-1.8 2.45 2.45 0 0 1 2.5-.9 2.23 2.23 0 0 1 1.8 2c.1.1.1.2.1.4m-11.5 2.35h-.6v-3.3h.6v.4a1.11 1.11 0 0 1 1-.5 1 1 0 0 1 .9.6 1.22 1.22 0 0 1 1.2-.6 1.09 1.09 0 0 1 1.1 1v2.3h-.6v-2c0-.5-.2-.8-.7-.8a.74.74 0 0 0-.8.8v2h-.6v-2.2a.67.67 0 0 0-.5-.7.75.75 0 0 0-.9.4c0 .1-.1.3-.1.4v2.2m13.6-1.3c.2-.1.4-.1.6-.2v.1a1.15 1.15 0 0 0 1.7.8.67.67 0 0 0 .4-.7.63.63 0 0 0-.5-.6c-.3-.1-.7-.2-1-.3-.7-.2-1.1-.6-1.1-1.2a1.4 1.4 0 0 1 .3-.9 1.76 1.76 0 0 1 2.5-.2 2 2 0 0 1 .4.8c-.2.1-.4.1-.6.2 0-.1-.1-.2-.1-.3a1.06 1.06 0 0 0-1.6-.3.91.91 0 0 0-.3.7c.1.3.3.5.5.5s.5.1.8.2c.1 0 .3.1.4.1a1.05 1.05 0 0 1 .8 1 1.2 1.2 0 0 1-.6 1.3 2 2 0 0 1-2.5-.3c.1-.1 0-.4-.1-.7M90 222.75h-.6v-3.3h.6v.5a1.07 1.07 0 0 1 1.2-.6v.7h-.3a.74.74 0 0 0-.8.8v1.7c-.1.1-.1.1-.1.2"/><path class="d" d="M86.45 208.55a4 4 0 0 0-2.2.6l-5.5 3.2a4.45 4.45 0 0 0-2.2 3.9v7.8a4.48 4.48 0 0 0 3.4 4.3l15.6 4.1a4.1 4.1 0 0 0 1.1.1h8a4.65 4.65 0 0 0 2.3-.6l5.5-3.2a4.45 4.45 0 0 0 2.2-3.9v-7.8a4.5 4.5 0 0 0-3.3-4.3l-14.8-4.1a5 5 0 0 0-1.2-.2h-8.9zm18.1 24.6h-8a6.88 6.88 0 0 1-1.3-.2l-15.6-4.1a5.13 5.13 0 0 1-3.8-4.9v-7.8a5.21 5.21 0 0 1 2.5-4.4l5.5-3.2a5.9 5.9 0 0 1 2.5-.7h8.8a5.07 5.07 0 0 1 1.3.2l14.8 4.1a5 5 0 0 1 3.7 4.9v7.8a5.21 5.21 0 0 1-2.5 4.4l-5.5 3.2a4.53 4.53 0 0 1-2.4.7"/><path class="e" d="M120.75 169.85h-50.5a12 12 0 0 1-12-12v-50.6a12 12 0 0 1 12-12h50.6a12 12 0 0 1 12 12v50.6a12.19 12.19 0 0 1-12.1 12z"/><path class="c" d="M89.25 148.15h22.1v9.2h-31.6v-49.6h9.5z"/><path class="d" d="M86.35 133.15v-.2c-.1-.5-.4-.9-.9-.9s-1 .2-1.1.8a1.1 1.1 0 0 0 0 .8 1 1 0 0 0 1.5.6 1.27 1.27 0 0 0 .5-1.1m-1.1 1.8a1.71 1.71 0 0 1-1.7-1.8 1.69 1.69 0 0 1 1.7-1.7 1.71 1.71 0 0 1 1.7 1.8 1.63 1.63 0 0 1-1.7 1.7m-5.1-3.4v-.8a1.13 1.13 0 0 1 1.3-.9c.1 0 .1.1.1.2v.4h-.4a.43.43 0 0 0-.4.4v.7h.9v.6h-.8v2.7h-.7v-2.7h-.6v-.6h.6zm24.8.8V132a1.6 1.6 0 0 0-1.2-1.4 1.73 1.73 0 0 0-1.8.5 1.88 1.88 0 0 0-.4 1.6 1.72 1.72 0 0 0 2.6 1.4 2.14 2.14 0 0 0 .8-1.7m.7 0a2.46 2.46 0 0 1-4.9.3 2.9 2.9 0 0 1 .5-1.8 2.45 2.45 0 0 1 2.5-.9 2.23 2.23 0 0 1 1.8 2 .6.6 0 0 1 .1.4m-11.5 2.35h-.6v-3.3h.6v.4a1.11 1.11 0 0 1 1-.5 1 1 0 0 1 .9.6 1.22 1.22 0 0 1 1.2-.6 1.09 1.09 0 0 1 1.1 1v2.3h-.6v-2c0-.5-.2-.8-.7-.8a.74.74 0 0 0-.8.8v2h-.6v-2.2a.67.67 0 0 0-.5-.7.75.75 0 0 0-.9.4c0 .1-.1.3-.1.4v2.2m13.6-1.3c.2-.1.4-.1.6-.2v.1a1.15 1.15 0 0 0 1.7.8.67.67 0 0 0 .4-.7.63.63 0 0 0-.5-.6c-.3-.1-.7-.2-1-.3-.7-.2-1.1-.6-1.1-1.2a1.4 1.4 0 0 1 .3-.9 1.76 1.76 0 0 1 2.5-.2 2 2 0 0 1 .4.8c-.2.1-.4.1-.6.2 0-.1-.1-.2-.1-.3a1.06 1.06 0 0 0-1.6-.3.91.91 0 0 0-.3.7c.1.3.3.5.5.5s.5.1.8.2c.1 0 .3.1.4.1a1.05 1.05 0 0 1 .8 1 1.2 1.2 0 0 1-.6 1.3 2 2 0 0 1-2.5-.3c.1-.1 0-.4-.1-.7M90 134.75h-.6v-3.3h.6v.5a1.07 1.07 0 0 1 1.2-.6v.7h-.3a.74.74 0 0 0-.8.8v1.7a.31.31 0 0 0-.1.2"/><path class="d" d="M86.45 120.55a4 4 0 0 0-2.2.6l-5.5 3.2a4.45 4.45 0 0 0-2.2 3.9v7.8a4.48 4.48 0 0 0 3.4 4.3l15.6 4.1a4.1 4.1 0 0 0 1.1.1h8a4.65 4.65 0 0 0 2.3-.6l5.5-3.2a4.45 4.45 0 0 0 2.2-3.9v-7.8a4.5 4.5 0 0 0-3.3-4.3l-14.8-4.1a5 5 0 0 0-1.2-.2h-8.9zm18.1 24.6h-8a6.88 6.88 0 0 1-1.3-.2l-15.6-4.1a5.13 5.13 0 0 1-3.8-4.9v-7.7a5.21 5.21 0 0 1 2.5-4.4l5.5-3.2a5.9 5.9 0 0 1 2.5-.7h8.8a5.07 5.07 0 0 1 1.3.2l14.8 4.1a5 5 0 0 1 3.7 4.9v7.8a5.21 5.21 0 0 1-2.5 4.4l-5.5 3.2a4.5 4.5 0 0 1-2.4.6"/><path class="f" d="M120.75 81.85h-50.5a12 12 0 0 1-12-12v-50.6a12 12 0 0 1 12-12h50.6a12 12 0 0 1 12 12v50.6a12.19 12.19 0 0 1-12.1 12z"/><path class="c" d="M111.15 19.75v9.1h-21.6V41h19.1v9h-19.1v19.4h-9.8V19.85c10.5-.1 20.9-.1 31.4-.1z"/><path class="d" d="M86.35 45.15v-.2c-.1-.5-.4-.9-.9-.9s-1 .2-1.1.8a1.1 1.1 0 0 0 0 .8 1 1 0 0 0 1.5.6 1.27 1.27 0 0 0 .5-1.1m-1.1 1.7a1.71 1.71 0 0 1-1.7-1.8 1.69 1.69 0 0 1 1.7-1.7 1.71 1.71 0 0 1 1.7 1.8 1.58 1.58 0 0 1-1.7 1.7m-5.1-3.4v-.8a1.13 1.13 0 0 1 1.3-.9c.1 0 .1.1.1.2v.4h-.4a.43.43 0 0 0-.4.4v.7h.9v.6h-.8v2.7h-.7v-2.7h-.6v-.6zm24.8.9v-.4a1.6 1.6 0 0 0-1.2-1.4 1.73 1.73 0 0 0-1.8.5 1.88 1.88 0 0 0-.4 1.6 1.72 1.72 0 0 0 2.6 1.4 2.14 2.14 0 0 0 .8-1.7m.7 0a2.46 2.46 0 0 1-4.9.3 2.9 2.9 0 0 1 .5-1.8 2.45 2.45 0 0 1 2.5-.9 2.23 2.23 0 0 1 1.8 2c.1.1.1.2.1.4m-11.5 2.4h-.6v-3.3h.6v.4a1.11 1.11 0 0 1 1-.5 1 1 0 0 1 .9.6 1.22 1.22 0 0 1 1.2-.6 1.09 1.09 0 0 1 1.1 1v2.3h-.6v-2c0-.5-.2-.8-.7-.8a.74.74 0 0 0-.8.8v2h-.6v-2.2a.67.67 0 0 0-.5-.7.75.75 0 0 0-.9.4c0 .1-.1.3-.1.4v2.2m13.6-1.3c.2-.1.4-.1.6-.2v.1a1.15 1.15 0 0 0 1.7.8.67.67 0 0 0 .4-.7.63.63 0 0 0-.5-.6l-1-.3c-.7-.2-1.1-.6-1.1-1.2a1.4 1.4 0 0 1 .3-.9 1.76 1.76 0 0 1 2.5-.2 2 2 0 0 1 .4.8c-.2.1-.4.1-.6.2 0-.1-.1-.2-.1-.3a1.06 1.06 0 0 0-1.6-.3.91.91 0 0 0-.3.7c.1.3.3.5.5.5s.5.1.8.2c.1 0 .3.1.4.1a1.05 1.05 0 0 1 .8 1 1.2 1.2 0 0 1-.6 1.3 2 2 0 0 1-2.5-.3c.1-.1 0-.4-.1-.7M90 46.75h-.6v-3.3h.6v.5a1.07 1.07 0 0 1 1.2-.6v.7h-.3a.74.74 0 0 0-.8.8v1.7c-.1.1-.1.1-.1.2"/><path class="d" d="M86.45 32.55a4 4 0 0 0-2.2.6l-5.5 3.1a4.45 4.45 0 0 0-2.2 3.9v7.8a4.48 4.48 0 0 0 3.4 4.3l15.6 4.1a4.1 4.1 0 0 0 1.1.1h8a4.65 4.65 0 0 0 2.3-.6l5.5-3.2a4.45 4.45 0 0 0 2.2-3.9v-7.8a4.5 4.5 0 0 0-3.3-4.3l-14.8-4.1a5 5 0 0 0-1.2-.2h-8.9zm18.1 24.6h-8a6.88 6.88 0 0 1-1.3-.2l-15.6-4.1a5.13 5.13 0 0 1-3.8-4.9v-7.8a5.21 5.21 0 0 1 2.5-4.4l5.5-3.2a5.9 5.9 0 0 1 2.5-.7h8.8a5.07 5.07 0 0 1 1.3.2l14.8 4.1a5 5 0 0 1 3.7 4.9v7.8a5.21 5.21 0 0 1-2.5 4.4l-5.5 3.2a4.53 4.53 0 0 1-2.4.7"/><path class="g" d="M208.55 169.85h-50.6a12 12 0 0 1-12-12v-50.6a12 12 0 0 1 12-12h50.6a12 12 0 0 1 12 12v50.6a12 12 0 0 1-12 12z"/><path class="c" d="M164.75 157.35h-9.2v-49.7c.6 0 1.1-.1 1.7-.1h7.3c3.7 0 3.7 0 5.1 3.5 4.2 10.2 8.5 20.4 12.7 30.5a12.16 12.16 0 0 0 .8 1.7 9.67 9.67 0 0 1 .7-1.2c4.5-11 8.9-22 13.3-33a2 2 0 0 1 2.1-1.5c3.8.1 7.7 0 11.6 0v49.8h-9.4v-33.7c-.1 0-.2-.1-.4-.1-.3.6-.5 1.1-.8 1.7-4.2 10.3-8.4 20.5-12.6 30.8a2.1 2.1 0 0 1-2.4 1.6c-2.1-.1-4.6.6-6.1-.4s-1.9-3.5-2.7-5.4c-3.6-8.7-7.2-17.3-10.7-26a3.17 3.17 0 0 0-1.2-1.7c.2 10.9.2 22 .2 33.2z"/><path class="d" d="M174 133.15v-.2c-.1-.5-.4-.9-.9-.9s-1 .2-1.1.8a1.1 1.1 0 0 0 0 .8 1 1 0 0 0 1.5.6 1.27 1.27 0 0 0 .5-1.1m-1 1.8a1.71 1.71 0 0 1-1.7-1.8 1.69 1.69 0 0 1 1.7-1.7 1.71 1.71 0 0 1 1.7 1.8 1.69 1.69 0 0 1-1.7 1.7m-5.15-3.4v-.8a1.13 1.13 0 0 1 1.3-.9c.1 0 .1.1.1.2v.4h-.4a.43.43 0 0 0-.4.4v.7h.8v.6h-.8v2.7h-.7v-2.7h-.6v-.6h.7zm24.8.8V132a1.6 1.6 0 0 0-1.2-1.4 1.73 1.73 0 0 0-1.8.5 1.88 1.88 0 0 0-.4 1.6 1.72 1.72 0 0 0 2.6 1.4 1.88 1.88 0 0 0 .8-1.7m.7 0a2.46 2.46 0 0 1-4.9.3 2.9 2.9 0 0 1 .5-1.8 2.45 2.45 0 0 1 2.5-.9 2.23 2.23 0 0 1 1.8 2 .6.6 0 0 1 .1.4m-11.5 2.35h-.6v-3.3h.6v.4a1.11 1.11 0 0 1 1-.5 1 1 0 0 1 .9.6 1.22 1.22 0 0 1 1.2-.6 1.09 1.09 0 0 1 1.1 1v2.3h-.6v-2c0-.5-.2-.8-.7-.8a.74.74 0 0 0-.8.8v2h-.6v-2.2a.67.67 0 0 0-.5-.7.75.75 0 0 0-.9.4c0 .1-.1.3-.1.4v2.2m13.7-1.3c.2-.1.4-.1.6-.2v.1a1.15 1.15 0 0 0 1.7.8.67.67 0 0 0 .4-.7.63.63 0 0 0-.5-.6c-.3-.1-.7-.2-1-.3-.7-.2-1.1-.6-1.1-1.2a1.4 1.4 0 0 1 .3-.9 1.76 1.76 0 0 1 2.5-.2 2 2 0 0 1 .4.8c-.2.1-.4.1-.6.2 0-.1-.1-.2-.1-.3a1.06 1.06 0 0 0-1.6-.3.91.91 0 0 0-.3.7c.1.3.3.5.5.5s.5.1.8.2c.1 0 .3.1.4.1a1.05 1.05 0 0 1 .8 1 1.2 1.2 0 0 1-.6 1.3 2 2 0 0 1-2.5-.3 5.65 5.65 0 0 1-.1-.7m-17.8 1.3h-.6v-3.3h.6v.5a1.07 1.07 0 0 1 1.2-.6v.7h-.3a.74.74 0 0 0-.8.8v1.7a.31.31 0 0 0-.1.2"/><path class="d" d="M174.15 120.55a4 4 0 0 0-2.2.6l-5.5 3.2a4.45 4.45 0 0 0-2.2 3.9v7.8a4.48 4.48 0 0 0 3.4 4.3l15.6 4.1a4.1 4.1 0 0 0 1.1.1h8a4.65 4.65 0 0 0 2.3-.6l5.5-3.2a4.45 4.45 0 0 0 2.2-3.9v-7.8a4.5 4.5 0 0 0-3.3-4.3l-14.8-4.1a5 5 0 0 0-1.2-.2h-8.9zm18.1 24.6h-8a6.88 6.88 0 0 1-1.3-.2l-15.6-4.1a5.13 5.13 0 0 1-3.8-4.9v-7.7a5.21 5.21 0 0 1 2.5-4.4l5.5-3.2a5.9 5.9 0 0 1 2.5-.7h8.8a5.07 5.07 0 0 1 1.3.2l14.8 4.1a5 5 0 0 1 3.7 4.9v7.8a5.21 5.21 0 0 1-2.5 4.4l-5.5 3.2a4.5 4.5 0 0 1-2.4.6"/><path class="h" d="M208.55 81.85h-50.6a12 12 0 0 1-12-12v-50.6a12 12 0 0 1 12-12h50.6a12 12 0 0 1 12 12v50.6a12 12 0 0 1-12 12z"/><path class="c" d="M162.75 69.25v-49.6h9.6v19.8H194v-19.8h9.7v49.6h-9.6v-20.5h-21.7v20.4c-3.25.1-6.45.1-9.65.1z"/><path class="d" d="M174 45.15v-.2c-.1-.5-.4-.9-.9-.9s-1 .2-1.1.8a1.1 1.1 0 0 0 0 .8 1 1 0 0 0 1.5.6 1.27 1.27 0 0 0 .5-1.1m-1 1.7a1.71 1.71 0 0 1-1.7-1.8 1.69 1.69 0 0 1 1.7-1.7 1.71 1.71 0 0 1 1.7 1.8 1.63 1.63 0 0 1-1.7 1.7m-5.15-3.4v-.8a1.13 1.13 0 0 1 1.3-.9c.1 0 .1.1.1.2v.4h-.4a.43.43 0 0 0-.4.4v.7h.8v.6h-.8v2.7h-.7v-2.7h-.6v-.6zm24.8.9v-.4a1.6 1.6 0 0 0-1.2-1.4 1.73 1.73 0 0 0-1.8.5 1.88 1.88 0 0 0-.4 1.6 1.72 1.72 0 0 0 2.6 1.4 1.88 1.88 0 0 0 .8-1.7m.7 0a2.46 2.46 0 0 1-4.9.3 2.9 2.9 0 0 1 .5-1.8 2.45 2.45 0 0 1 2.5-.9 2.23 2.23 0 0 1 1.8 2c.1.1.1.2.1.4m-11.5 2.4h-.6v-3.3h.6v.4a1.11 1.11 0 0 1 1-.5 1 1 0 0 1 .9.6 1.22 1.22 0 0 1 1.2-.6 1.09 1.09 0 0 1 1.1 1v2.3h-.6v-2c0-.5-.2-.8-.7-.8a.74.74 0 0 0-.8.8v2h-.6v-2.2a.67.67 0 0 0-.5-.7.75.75 0 0 0-.9.4c0 .1-.1.3-.1.4v2.2m13.7-1.3c.2-.1.4-.1.6-.2v.1a1.15 1.15 0 0 0 1.7.8.67.67 0 0 0 .4-.7.63.63 0 0 0-.5-.6l-1-.3c-.7-.2-1.1-.6-1.1-1.2a1.4 1.4 0 0 1 .3-.9 1.76 1.76 0 0 1 2.5-.2 2 2 0 0 1 .4.8c-.2.1-.4.1-.6.2 0-.1-.1-.2-.1-.3a1.06 1.06 0 0 0-1.6-.3.91.91 0 0 0-.3.7c.1.3.3.5.5.5s.5.1.8.2c.1 0 .3.1.4.1a1.05 1.05 0 0 1 .8 1 1.2 1.2 0 0 1-.6 1.3 2 2 0 0 1-2.5-.3 5.65 5.65 0 0 1-.1-.7m-17.8 1.3h-.6v-3.3h.6v.5a1.07 1.07 0 0 1 1.2-.6v.7h-.3a.74.74 0 0 0-.8.8v1.7c-.1.1-.1.1-.1.2"/><path class="d" d="M174.15 32.55a4 4 0 0 0-2.2.6l-5.5 3.2a4.45 4.45 0 0 0-2.2 3.9V48a4.48 4.48 0 0 0 3.4 4.3l15.6 4.1a4.1 4.1 0 0 0 1.1.1h8a4.65 4.65 0 0 0 2.3-.6l5.5-3.2a4.45 4.45 0 0 0 2.2-3.9V41a4.5 4.5 0 0 0-3.3-4.3l-14.8-4.1a5 5 0 0 0-1.2-.2h-8.9zm18.1 24.6h-8a6.88 6.88 0 0 1-1.3-.2l-15.6-4.1a5.13 5.13 0 0 1-3.8-4.9v-7.8a5.21 5.21 0 0 1 2.5-4.4l5.5-3.2a5.9 5.9 0 0 1 2.5-.7h8.8a5.07 5.07 0 0 1 1.3.2l14.8 4.1a5 5 0 0 1 3.7 4.9v7.8a5.21 5.21 0 0 1-2.5 4.4l-5.5 3.2a4.53 4.53 0 0 1-2.4.7"/><path class="i" d="M296.25 169.85h-50.6a12 12 0 0 1-12-12v-50.6a12 12 0 0 1 12-12h50.6a12 12 0 0 1 12 12v50.6a12 12 0 0 1-12 12z"/><path class="c" d="M288.95 119.55c-2.8.9-5.5 1.7-8.4 2.6a4.87 4.87 0 0 1-.4-1.1 9.09 9.09 0 0 0-13.5-4.6 5.72 5.72 0 0 0-3 5.8 5.53 5.53 0 0 0 4.4 4.6c3 .7 6 1.1 8.9 1.8 4.7 1.1 8.8 3.4 11.2 7.8 3.5 6.4 1.3 14.5-5 18.8-7.5 5-19.4 4.1-26-2.1a16.92 16.92 0 0 1-5.1-10.3c2.9-.8 5.8-1.5 8.6-2.3.2.2.4.3.4.4 1.2 8.3 9.1 9.9 14.6 8.4a5.72 5.72 0 0 0 4.4-5.4 5.4 5.4 0 0 0-4-5.5c-3.1-.9-6.3-1.5-9.4-2.2a17.51 17.51 0 0 1-8.1-3.9c-6-5.4-6-14.7-.2-20.6 6.3-6.4 18.1-7.2 25.2-1.7 2.9 2.5 5.1 6.1 5.4 9.5z"/><path class="d" d="M261.85 133.15v-.2c-.1-.5-.4-.9-.9-.9s-1 .2-1.1.8a1.1 1.1 0 0 0 0 .8 1 1 0 0 0 1.5.6 1.61 1.61 0 0 0 .5-1.1m-1.1 1.8a1.71 1.71 0 0 1-1.7-1.8 1.69 1.69 0 0 1 1.7-1.7 1.71 1.71 0 0 1 1.7 1.8 1.63 1.63 0 0 1-1.7 1.7m-5.1-3.4v-.8a1.13 1.13 0 0 1 1.3-.9c.1 0 .1.1.1.2v.4h-.4a.43.43 0 0 0-.4.4v.7h.8v.6h-.8v2.7h-.6v-2.7H255v-.6h.6zm24.8.8V132a1.6 1.6 0 0 0-1.2-1.4 1.73 1.73 0 0 0-1.8.5 1.88 1.88 0 0 0-.4 1.6 1.72 1.72 0 0 0 2.6 1.4 2.49 2.49 0 0 0 .8-1.7m.6 0a2.46 2.46 0 0 1-4.9.3 2.9 2.9 0 0 1 .5-1.8 2.45 2.45 0 0 1 2.5-.9 2.23 2.23 0 0 1 1.8 2 .6.6 0 0 1 .1.4m-11.4 2.35H269v-3.3h.6v.4a1.11 1.11 0 0 1 1-.5 1 1 0 0 1 .9.6 1.22 1.22 0 0 1 1.2-.6 1.09 1.09 0 0 1 1.1 1v2.3h-.6v-2c0-.5-.2-.8-.7-.8a.74.74 0 0 0-.8.8v2h-.6v-2.2a.67.67 0 0 0-.5-.7.75.75 0 0 0-.9.4c0 .1-.1.3-.1.4v2.2m13.65-1.3c.2-.1.4-.1.6-.2v.1a1.15 1.15 0 0 0 1.7.8.67.67 0 0 0 .4-.7.63.63 0 0 0-.5-.6c-.3-.1-.7-.2-1-.3-.7-.2-1.1-.6-1.1-1.2a1.4 1.4 0 0 1 .3-.9 1.76 1.76 0 0 1 2.5-.2 2 2 0 0 1 .4.8c-.2.1-.4.1-.6.2 0-.1-.1-.2-.1-.3a1.06 1.06 0 0 0-1.6-.3.91.91 0 0 0-.3.7c.1.3.3.5.5.5s.5.1.8.2c.1 0 .3.1.4.1a1.05 1.05 0 0 1 .8 1 1.2 1.2 0 0 1-.6 1.3 2 2 0 0 1-2.5-.3c.1-.1-.1-.4-.1-.7m-17.7 1.3h-.6v-3.3h.6v.5a1.07 1.07 0 0 1 1.2-.6v.7h-.3a.74.74 0 0 0-.8.8v1.7a.31.31 0 0 0-.1.2"/><path class="d" d="M261.95 120.55a4 4 0 0 0-2.2.6l-5.5 3.2a4.45 4.45 0 0 0-2.2 3.9v7.8a4.48 4.48 0 0 0 3.4 4.3l15.6 4.1a4.1 4.1 0 0 0 1.1.1h8a4.65 4.65 0 0 0 2.3-.6l5.5-3.2a4.45 4.45 0 0 0 2.2-3.9v-7.8a4.5 4.5 0 0 0-3.3-4.3l-14.8-4.1a5 5 0 0 0-1.2-.2h-8.9zm18.1 24.6h-8a6.88 6.88 0 0 1-1.3-.2l-15.6-4.1a5.13 5.13 0 0 1-3.8-4.9v-7.7a5.21 5.21 0 0 1 2.5-4.4l5.5-3.2a5.9 5.9 0 0 1 2.5-.7h8.8a5.07 5.07 0 0 1 1.3.2l14.8 4.1a5 5 0 0 1 3.7 4.9v7.8a5.21 5.21 0 0 1-2.5 4.4l-5.5 3.2a4.5 4.5 0 0 1-2.4.6"/><path class="j" d="M296.25 81.85h-50.6a12 12 0 0 1-12-12v-50.6a12 12 0 0 1 12-12h50.6a12 12 0 0 1 12 12v50.6a12 12 0 0 1-12 12z"/><path class="c" d="M263 69.45h-9.5v-49.6a1.42 1.42 0 0 1 .6-.2c6.7 0 13.4-.2 20.1.2 8.4.4 14.3 7 14.2 15.4s-6 14.9-14.5 15.3a82.25 82.25 0 0 1-8.6.1c-1.7-.1-2.3.4-2.3 2.2.1 4.8 0 9.6 0 14.5zm.2-27.3c3.3 0 6.5.2 9.5-.1 3.4-.3 5.5-2.8 5.8-6.2s-1.3-6.6-4.4-7.1c-3.6-.7-7.3-.6-11-.8.15 5.05.15 9.6.15 14.2z"/><path class="d" d="M261.85 45.15v-.2c-.1-.5-.4-.9-.9-.9s-1 .2-1.1.8a1.1 1.1 0 0 0 0 .8 1 1 0 0 0 1.5.6 1.61 1.61 0 0 0 .5-1.1m-1.1 1.7a1.71 1.71 0 0 1-1.7-1.8 1.69 1.69 0 0 1 1.7-1.7 1.71 1.71 0 0 1 1.7 1.8 1.58 1.58 0 0 1-1.7 1.7m-5.1-3.4v-.8a1.13 1.13 0 0 1 1.3-.9c.1 0 .1.1.1.2v.4h-.4a.43.43 0 0 0-.4.4v.7h.8v.6h-.8v2.7h-.6v-2.7H255v-.6zm24.8.9v-.4a1.6 1.6 0 0 0-1.2-1.4 1.73 1.73 0 0 0-1.8.5 1.88 1.88 0 0 0-.4 1.6 1.72 1.72 0 0 0 2.6 1.4 2.49 2.49 0 0 0 .8-1.7m.6 0a2.46 2.46 0 0 1-4.9.3 2.9 2.9 0 0 1 .5-1.8 2.45 2.45 0 0 1 2.5-.9 2.23 2.23 0 0 1 1.8 2c.1.1.1.2.1.4m-11.4 2.4H269v-3.3h.6v.4a1.11 1.11 0 0 1 1-.5 1 1 0 0 1 .9.6 1.22 1.22 0 0 1 1.2-.6 1.09 1.09 0 0 1 1.1 1v2.3h-.6v-2c0-.5-.2-.8-.7-.8a.74.74 0 0 0-.8.8v2h-.6v-2.2a.67.67 0 0 0-.5-.7.75.75 0 0 0-.9.4c0 .1-.1.3-.1.4v2.2m13.65-1.3c.2-.1.4-.1.6-.2v.1a1.15 1.15 0 0 0 1.7.8.67.67 0 0 0 .4-.7.63.63 0 0 0-.5-.6l-1-.3c-.7-.2-1.1-.6-1.1-1.2a1.4 1.4 0 0 1 .3-.9 1.76 1.76 0 0 1 2.5-.2 2 2 0 0 1 .4.8c-.2.1-.4.1-.6.2 0-.1-.1-.2-.1-.3a1.06 1.06 0 0 0-1.6-.3.91.91 0 0 0-.3.7c.1.3.3.5.5.5s.5.1.8.2c.1 0 .3.1.4.1a1.05 1.05 0 0 1 .8 1 1.2 1.2 0 0 1-.6 1.3 2 2 0 0 1-2.5-.3c.1-.1-.1-.4-.1-.7m-17.7 1.3h-.6v-3.3h.6v.5a1.07 1.07 0 0 1 1.2-.6v.7h-.3a.74.74 0 0 0-.8.8v1.7c-.1.1-.1.1-.1.2"/><path class="d" d="M261.95 32.55a4 4 0 0 0-2.2.6l-5.5 3.2a4.45 4.45 0 0 0-2.2 3.9V48a4.48 4.48 0 0 0 3.4 4.3l15.6 4.1a4.1 4.1 0 0 0 1.1.1h8a4.65 4.65 0 0 0 2.3-.6l5.5-3.2a4.45 4.45 0 0 0 2.2-3.9V41a4.5 4.5 0 0 0-3.3-4.3l-14.8-4.1a5 5 0 0 0-1.2-.2h-8.9zM280 57.15h-8a6.88 6.88 0 0 1-1.3-.2l-15.6-4.1a5.13 5.13 0 0 1-3.8-4.9v-7.8a5.21 5.21 0 0 1 2.5-4.4l5.5-3.2a5.9 5.9 0 0 1 2.5-.7h8.8a5.07 5.07 0 0 1 1.3.2l14.8 4.1a5 5 0 0 1 3.7 4.9v7.8a5.21 5.21 0 0 1-2.5 4.4l-5.5 3.2a4.53 4.53 0 0 1-2.4.7"/><path class="k" d="M0 0h368v266.6H0z"/></svg>