<svg class="logo" xmlns="http://www.w3.org/2000/svg" viewBox="0 0 297.2 190.81"><defs><style>.a{fill:#231f20}</style></defs><title>formos_logo</title><path class="a" d="M79.39 99.92c0-.47 0-1.06-.1-1.64a7.68 7.68 0 0 0-6.65-7.08c-4.2-.38-7.45 1.68-8.34 5.77a14.06 14.06 0 0 0 0 6.24 7.47 7.47 0 0 0 11.37 4.5c2.78-1.78 3.64-4.55 3.68-7.79m-8 13.32c-7.43-.2-12.73-6-12.5-13.58s5.73-13.09 13-12.9 12.68 5.9 12.5 13.57-5.74 13.11-13 12.91M32.5 87.6c.1-2.2.05-4.14.31-6a7.87 7.87 0 0 1 9.92-6.6c.67.16 1 .39 1 1.15v3.26c-1 0-1.84-.07-2.67 0a3.35 3.35 0 0 0-3.27 3c-.15 1.64 0 3.3 0 5.07h5.8v4.43h-5.88v20.47h-5.09V92h-4.56v-4.4zm187.59 6.16a27.89 27.89 0 0 0-.32-3c-1.07-5.3-3.87-9.21-9.29-10.64s-10.12-.25-13.79 4.08c-2.88 3.41-3.42 7.52-3.11 11.83a13.19 13.19 0 0 0 19.77 10.82c4.89-2.76 6.57-7.38 6.73-13.1m5.22.37c-.11 9.7-6 17.1-15.17 18.8a18.32 18.32 0 0 1-21.76-17c-.3-4.92.56-9.48 3.51-13.54a18.47 18.47 0 0 1 19.27-6.92 18 18 0 0 1 13.77 14.92c.19 1.24.25 2.5.37 3.75m-86.81 18.26h-4.77V87.64h4.53l.19 2.83a9 9 0 0 1 7.87-3.64 7.73 7.73 0 0 1 7.09 4.61c2-3.51 5.12-4.75 8.82-4.6a8 8 0 0 1 8 7.93c.29 5.83.07 11.68.07 17.61h-4.72c0-.48-.06-1-.06-1.43V97.32c0-4.11-1.67-6.13-5.1-6.19s-5.89 2.37-5.94 6.22c-.05 3.46 0 6.93 0 10.4v4.64h-4.82c0-.49-.06-1-.06-1.43V96.25c-.12-2.71-1.58-4.62-3.85-5-3.07-.54-5.69.7-6.64 3.31a10.15 10.15 0 0 0-.55 3.29c-.06 4.81 0 9.62 0 14.54m103.03-10.07l4.75-1.52c.09.34.16.54.21.75a9.06 9.06 0 0 0 13 6.27 5.33 5.33 0 0 0 3.26-5.16 4.93 4.93 0 0 0-3.42-4.87c-2.53-.87-5.21-1.35-7.82-2-5-1.24-8-4.4-8.42-9.1a9.73 9.73 0 0 1 2.16-7.05c4.52-5.74 14-6.4 19.28-1.34a11 11 0 0 1 3.1 5.74l-4.41 1.57a24.48 24.48 0 0 0-1-2.33 8.08 8.08 0 0 0-12-2.15 5.46 5.46 0 0 0-1.9 5.57 5 5 0 0 0 4 4c2 .52 3.95.86 5.91 1.35a21.06 21.06 0 0 1 3.33 1.06c3.43 1.49 5.8 3.92 6.28 7.79a10 10 0 0 1-4.3 9.85c-5.58 4.08-14.48 3.17-19.12-1.94a11.87 11.87 0 0 1-2.9-6.47m-134.08 10.05h-4.83V87.64h4.76v4.09c2.16-3.62 5.05-5 9-4.47v5.05h-2.5c-3.5.14-6 2.24-6.18 5.71-.25 4.17-.16 8.36-.21 12.55v1.81"/><path class="a" d="M80 4.52a34.07 34.07 0 0 0-17 4.56L21.53 33a34.12 34.12 0 0 0-17 29.46v58.75A34 34 0 0 0 30 154.18l118.2 30.73a34 34 0 0 0 8.4 1.1l60.47.29a34.12 34.12 0 0 0 17.17-4.56l41.43-23.92a34.12 34.12 0 0 0 17-29.46V69.23a34.1 34.1 0 0 0-25-32.81l-112-30.69a34 34 0 0 0-9-1.21zm137.19 186.3h-.18l-60.47-.29a38.59 38.59 0 0 1-9.51-1.24L28.84 158.55A38.54 38.54 0 0 1 0 121.25V62.5a38.65 38.65 0 0 1 19.27-33.37l41.51-24A38.59 38.59 0 0 1 80 0h66.62a38.61 38.61 0 0 1 10.19 1.37l112 30.69a38.63 38.63 0 0 1 28.39 37.17v59.13a38.65 38.65 0 0 1-19.27 33.38l-41.43 23.92a38.57 38.57 0 0 1-19.27 5.16"/></svg>