<svg class="icon" xmlns="http://www.w3.org/2000/svg" viewBox="0 0 312.1 266.6"><defs><style>.a{fill:#ced0e8}.b{fill:none}</style></defs><title>formos_icon_arc</title><path class="a" d="M20.8 190.72a2.35 2.35 0 0 1-.8-.2l-.6-.4-1.4.2a1.13 1.13 0 0 1-1.1-.3l-1.5-1-2.2-.6a.76.76 0 0 1-.4-.2l-1.2-.7a.78.78 0 0 1-.4-.4l-.4-.5-2-1.2a.78.78 0 0 1-.4-.4l-1.4-1.7L5 182a.1.1 0 0 1-.1-.1l-1-.8c-.2-.2-.4-.4-.4-.6l-.5-1.3-1.1-.9a1.38 1.38 0 0 1-.3-.4l-1.2-2.1a1.85 1.85 0 0 1-.2-.7L0 120.22a1.88 1.88 0 0 1 .2-.8 1.7 1.7 0 0 1 .6-.6l48.1-26.4a1.45 1.45 0 0 1 .7-.2H52a.9.9 0 0 1 .5.1l1.3.5 1.4-.2a1.48 1.48 0 0 1 .7.1l1.1.5h.1l2.1 1.1 2.1.4a.76.76 0 0 1 .5.2l2 1.2.6.1a.76.76 0 0 1 .5.2l1.2.7.3.3L67.9 99l1.6.8a1.39 1.39 0 0 1 .7.8l.5 1.4.6.4a1.56 1.56 0 0 1 .7 1.3v.8l.3.2a1.21 1.21 0 0 1 .5.5l1.1 1.9a1.88 1.88 0 0 1 .2.8l.3 55a1.34 1.34 0 0 1-.8 1.3l-48.2 26.4a1.88 1.88 0 0 1-.8.2l-2.2-.1a1.45 1.45 0 0 1-.7-.2l-.3-.2-.7.4c.6-.08.4.02.1.02zm3-3.1h1.4l47.1-25.7-.3-53.7-.7-1.2-.7-.4a1.56 1.56 0 0 1-.7-1.3v-.8l-.3-.2a1.34 1.34 0 0 1-.6-.7l-.5-1.3-1.3-.6a1.38 1.38 0 0 1-.4-.3l-1.6-1.7-.8-.4-.6-.1a.76.76 0 0 1-.5-.2l-2-1.2-2.1-.4c-.1 0-.3-.1-.4-.1l-2.3-1.1-.7-.3-1.3.1a2 2 0 0 1-.7-.1l-1.4-.5h-1.8l-47 25.8.2 53.6.9 1.5 1.1 1a1 1 0 0 1 .4.5l.5 1.2.6.5 2.1 1.4.3.3 1.3 1.7 2 1.2a.78.78 0 0 1 .4.4l.4.5.8.4 2.2.6c.2 0 .3.1.5.2l1.2.9 1.4-.2a1.8 1.8 0 0 1 1 .2l.3.2.7-.4a2 2 0 0 1 1.5 0zm76.3-13.1a2.35 2.35 0 0 1-.8-.2l-.6-.4-1.4.2a1.13 1.13 0 0 1-1.1-.3l-1.5-1-2.2-.6a.76.76 0 0 1-.4-.2l-1.2-.7a.78.78 0 0 1-.4-.4l-.4-.5-2-1.2a.78.78 0 0 1-.4-.4l-1.4-1.7-2-1.3a.1.1 0 0 1-.1-.1l-1-.8c-.2-.2-.4-.4-.4-.6l-.5-1.3-1.1-.9a1.38 1.38 0 0 1-.3-.4l-1.2-2.1a1.85 1.85 0 0 1-.2-.7L79.3 104a2.35 2.35 0 0 1 .2-.8 1.7 1.7 0 0 1 .6-.6l48.1-26.4a1.85 1.85 0 0 1 .7-.2h2.4a.9.9 0 0 1 .5.1l1.3.5 1.4-.2a1.48 1.48 0 0 1 .7.1l1.1.5h.1l2.1 1.1 2.1.4a.76.76 0 0 1 .5.2l2 1.2.6.1a.76.76 0 0 1 .5.2l1.2.7.3.3 1.5 1.6 1.6.8a1.39 1.39 0 0 1 .7.8l.5 1.4.6.4a1.56 1.56 0 0 1 .7 1.3v.8l.3.2a1.21 1.21 0 0 1 .5.5l1.1 1.9a1.88 1.88 0 0 1 .2.8l.3 55a1.34 1.34 0 0 1-.8 1.3l-48.2 26.4a1.88 1.88 0 0 1-.8.2l-2.2-.1a1.85 1.85 0 0 1-.7-.2l-.3-.2-.7.4c.6-.08.3.02.1.02zm2.9-3.1h1.4l47.1-25.7-.3-53.72-.7-1.2-.7-.4a1.56 1.56 0 0 1-.7-1.3v-.8l-.3-.2a1.34 1.34 0 0 1-.6-.7l-.5-1.3-1.3-.6a1.38 1.38 0 0 1-.4-.3l-1.6-1.7-.8-.4-.6-.1a.76.76 0 0 1-.5-.2l-2-1.2-2.1-.4c-.1 0-.3-.1-.4-.1l-2.3-1.1-.7-.3-1.3.1a2 2 0 0 1-.7-.1l-1.4-.5h-1.8l-47 25.8.2 53.6.9 1.5 1.1 1a1 1 0 0 1 .4.5l.5 1.2.6.5 2.1 1.4.3.3 1.3 1.7 2 1.2a.78.78 0 0 1 .4.4l.4.5.8.4 2.2.6c.2 0 .3.1.5.2l1.2.9 1.4-.2a1.8 1.8 0 0 1 1 .2l.3.2.7-.4a2 2 0 0 1 1.5 0zm105.3 2.8a1.85 1.85 0 0 1-.7-.2l-48.3-26a1.7 1.7 0 0 1-.6-.6 1.88 1.88 0 0 1-.2-.8l-.3-54.9a1.45 1.45 0 0 1 .2-.7l1.2-2.1c.1-.1.2-.3.3-.4l1.1-1 .5-1.3a2.09 2.09 0 0 1 .4-.6l.9-.8a.1.1 0 0 0 .1-.1l1.9-1.4 1.3-1.7.4-.4 2-1.2.4-.5c.1-.2.3-.3.4-.4l1.2-.7c.1-.1.2-.1.4-.2l2.2-.6 1.5-1.1a2 2 0 0 1 1.1-.3l1.4.2.6-.4a1.58 1.58 0 0 1 1.5-.1l.7.4.3-.2a1.85 1.85 0 0 1 .7-.2l2.2-.1a1.2 1.2 0 0 1 .8.2l48.5 25.9a1.56 1.56 0 0 1 .8 1.3l.2 55a2.35 2.35 0 0 1-.2.8l-1.1 1.9a1.21 1.21 0 0 1-.5.5l-.3.2v.8a1.71 1.71 0 0 1-.7 1.3l-.6.4-.5 1.4a1.39 1.39 0 0 1-.7.8l-1.6.8-1.5 1.6-.3.3-1.2.7c-.2.1-.3.2-.5.2l-.6.1-2 1.2c-.2.1-.3.2-.5.2l-2.1.4-2.1 1.1h-.1l-1.1.5a1.7 1.7 0 0 1-.7.1l-1.4-.1-1.3.5a.9.9 0 0 1-.5.1l-3 .2zm-46.8-28.4l47.2 25.4h1.8l1.4-.5a1.48 1.48 0 0 1 .7-.1l1.3.1.7-.3 2.3-1.2a.6.6 0 0 1 .4-.1l2.1-.4 2-1.2c.2-.1.3-.2.5-.2l.6-.1.8-.5 1.6-1.7c.1-.1.3-.2.4-.3l1.3-.7.5-1.3a1.06 1.06 0 0 1 .6-.7l.3-.2V161a1.71 1.71 0 0 1 .7-1.3l.7-.4.7-1.2-.2-53.7-47.1-25.1-1.4.1-.7.4a1.58 1.58 0 0 1-1.5.1l-.7-.4-.3.2a1.64 1.64 0 0 1-1 .2l-1.4-.2-1.2.9a.76.76 0 0 1-.5.2l-2.2.6-.8.5-.4.5c-.1.2-.3.3-.4.4l-2 1.2-1.3 1.7-.3.3-2.1 1.5-.6.5-.5 1.2a1 1 0 0 1-.4.5l-1.1 1-.8 1.5zm125.6 43.7a1.85 1.85 0 0 1-.7-.2l-48.3-26a1.7 1.7 0 0 1-.6-.6 1.88 1.88 0 0 1-.2-.8L237 107a1.71 1.71 0 0 1 .7-1.3l23.4-14a1.36 1.36 0 0 1 1.5 0l48.5 25.9a1.56 1.56 0 0 1 .8 1.3l.2 55a1.71 1.71 0 0 1-.7 1.3l-23.6 14.1a1.85 1.85 0 0 1-.7.22zm-46.9-28.4l46.8 25.2 21.9-13.2-.2-53.2-46.9-25.1L239.9 108z"/><path class="b" d="M0 0h312.1v266.6H0z"/></svg>