<svg xmlns="http://www.w3.org/2000/svg" viewBox="0 0 366.2 235"><defs><style>.a{fill:#fff}.b{fill:#ced0e8}</style></defs><title>formos_how03</title><path class="a" d="M282.9 222.7v-12h-75.6v-71.2h-24v71.2h-75.6v12h175.2z"/><path class="b" d="M282.9 224.2H107.7a1.5 1.5 0 0 1-1.5-1.5v-12a1.5 1.5 0 0 1 1.5-1.5h74.1v-69.7a1.5 1.5 0 0 1 1.5-1.5h24a1.5 1.5 0 0 1 1.5 1.5v69.7h74.1a1.5 1.5 0 0 1 1.5 1.5v12a1.5 1.5 0 0 1-1.5 1.5zm-173.7-3h172.2v-9h-74.1a1.5 1.5 0 0 1-1.5-1.5V141h-21v69.7a1.5 1.5 0 0 1-1.5 1.5h-74.1z"/><path class="a" d="M25.9 1.5h338.8v190.37H25.9z"/><path class="b" d="M364.7 193.37H25.9a1.5 1.5 0 0 1-1.5-1.5V1.5A1.5 1.5 0 0 1 25.9 0h338.8a1.5 1.5 0 0 1 1.5 1.5v190.37a1.5 1.5 0 0 1-1.5 1.5zm-337.3-3h335.8V3H27.4z"/><path class="a" d="M11.1 108.7s-9.6 0-9.6 9.6v100s0 9.6 9.6 9.6h141.07s9.6 0 9.6-9.6v-100s0-9.6-9.6-9.6z"/><path class="b" d="M152.17 229.4H11.1c-11 0-11.1-11-11.1-11.1v-100c0-11 11-11.1 11.1-11.1h141.07c5.73 0 8.46 3.06 9.74 5.63a13.5 13.5 0 0 1 1.36 5.47v100c0 5.72-3.06 8.46-5.63 9.74a13.49 13.49 0 0 1-5.47 1.36zM11.1 110.2c-.84 0-8.1.29-8.1 8.1v100c0 .82.28 8.1 8.1 8.1h141.07c.82 0 8.1-.28 8.1-8.1v-100c0-.82-.28-8.1-8.1-8.1H11.1z"/><path class="a" d="M35.5 143.1s-9.6 0-9.6 9.6v71.2s0 9.6 9.6 9.6h29.33s9.6 0 9.6-9.6v-71.2s0-9.6-9.6-9.6z"/><path class="b" d="M64.83 235H35.5c-11 0-11.1-11-11.1-11.1v-71.2c0-8.78 7.26-11.1 11.1-11.1h29.33c11 0 11.1 11 11.1 11.1v71.2c0 8.78-7.26 11.1-11.1 11.1zM35.5 144.6c-.84 0-8.1.29-8.1 8.1v71.2c0 .82.28 8.1 8.1 8.1h29.33c.82 0 8.1-.28 8.1-8.1v-71.2c0-.82-.28-8.1-8.1-8.1z"/></svg>