<svg class="icon-small" xmlns="http://www.w3.org/2000/svg" viewBox="0 0 77 79.96"><defs><style>.a{fill:#ced0e8}.b{fill:none}</style></defs><title>formos_icon_4</title><path class="a" d="M35.82 80a1.61 1.61 0 0 1-1.1-.5 58.08 58.08 0 0 1 0-79 1.55 1.55 0 0 1 2.1-.1 1.55 1.55 0 0 1 .1 2.1 55.18 55.18 0 0 0 0 75 1.45 1.45 0 0 1-.1 2.1 1.16 1.16 0 0 1-1 .4z"/><path class="a" d="M46 69.76a1.61 1.61 0 0 1-1.1-.5 43.64 43.64 0 0 1 0-58.6 1.49 1.49 0 1 1 2.2 2A41.42 41.42 0 0 0 36.62 40a40.54 40.54 0 0 0 10.5 27.3 1.45 1.45 0 0 1-.1 2.1 1.28 1.28 0 0 1-1.02.36z"/><path class="a" d="M56.22 59.66a1.61 1.61 0 0 1-1.1-.5 29.56 29.56 0 0 1 0-38.2 1.49 1.49 0 1 1 2.3 1.9 26.49 26.49 0 0 0 0 34.3 1.46 1.46 0 0 1-.2 2.1 1.78 1.78 0 0 1-1 .4z"/><path class="b" d="M0 0h77v79.96H0z"/></svg>