<svg class="icon-small" xmlns="http://www.w3.org/2000/svg" viewBox="0 0 77 79.96"><defs><style>.a{fill:#ced0e8;}.b{fill:none;}</style></defs><title>formos_icon_2</title><path class="a" d="M75.5,59h-35a1.5,1.5,0,0,1,0-3H74V24H40.5a1.5,1.5,0,0,1,0-3h35a1.54,1.54,0,0,1,1.5,1.5v35A1.54,1.54,0,0,1,75.5,59Z"/><path class="a" d="M64.8,41.48H1.5a1.5,1.5,0,0,1,0-3H64.8a1.5,1.5,0,0,1,0,3Z"/><path class="a" d="M58.6,47.18a1.61,1.61,0,0,1-1.1-.5,1.45,1.45,0,0,1,.1-2.1l5-4.6-5-4.6a1.49,1.49,0,0,1,2-2.2l6.2,5.7a1.46,1.46,0,0,1,0,2.2l-6.2,5.7A1.16,1.16,0,0,1,58.6,47.18Z"/><rect class="b" width="77" height="79.96"/></svg>
