<svg xmlns="http://www.w3.org/2000/svg" viewBox="0 0 213.29 205.84"><defs><style>.a{fill:#ced0e8;}</style></defs><title>formos_how05</title><path class="a" d="M106.56,86.46a1.5,1.5,0,0,1-.77-.21L58.59,58.09a1.5,1.5,0,0,1-.55-.57l-1-1.9a1.5,1.5,0,0,1-.18-.72v-.38l-.68-.42a1.5,1.5,0,0,1-.7-1.27v-.69L54.55,51a1.5,1.5,0,0,1-.31-1l.15-1.8L53.77,46a1.51,1.51,0,0,1-.06-.41V44.18a1.5,1.5,0,0,1,.11-.56l.24-.6v-2.3a1.49,1.49,0,0,1,.1-.54l.78-2,.16-2.37s0-.07,0-.11l.17-1.21a1.5,1.5,0,0,1,.28-.69l.83-1.11.28-1.39a1.5,1.5,0,0,1,.18-.46l1.21-2.07a1.5,1.5,0,0,1,.53-.53l47.17-28a1.62,1.62,0,0,1,.79-.21,1.43,1.43,0,0,1,.79.21l47.17,28a1.51,1.51,0,0,1,.53.53l1.21,2.07a1.51,1.51,0,0,1,.17.46l.28,1.39.83,1.11a1.5,1.5,0,0,1,.29.69l.17,1.21v.11l.16,2.36.78,2a1.51,1.51,0,0,1,.1.54V43l.24.6a1.49,1.49,0,0,1,.11.56v1.38a1.51,1.51,0,0,1-.06.41l-.62,2.15.15,1.8a1.51,1.51,0,0,1-.31,1l-.89,1.15v.69a1.5,1.5,0,0,1-.71,1.27l-.68.42v.38a1.5,1.5,0,0,1-.18.72l-1,1.9a1.51,1.51,0,0,1-.55.57l-47.2,28.17A1.5,1.5,0,0,1,106.56,86.46ZM60.48,55.72l46.08,27.5,46.08-27.5.66-1.21v-.83a1.5,1.5,0,0,1,.71-1.27l.68-.42v-.38a1.5,1.5,0,0,1,.32-.92l.85-1.09-.12-1.49a1.52,1.52,0,0,1,.05-.54l.63-2.22v-.88l-.24-.6a1.49,1.49,0,0,1-.11-.56V41l-.76-2a1.54,1.54,0,0,1-.1-.44L155,36l-.11-.77-.81-1.07a1.5,1.5,0,0,1-.27-.61l-.3-1.48-.89-1.52L106.56,3.23,60.46,30.59l-.89,1.52-.3,1.48a1.5,1.5,0,0,1-.27.61l-.81,1.07-.11.77-.17,2.54a1.48,1.48,0,0,1-.1.44l-.76,2v2.31a1.5,1.5,0,0,1-.11.56l-.24.6v.88l.63,2.22a1.5,1.5,0,0,1,.05.54l-.12,1.49.85,1.09a1.5,1.5,0,0,1,.32.92V52l.68.42a1.5,1.5,0,0,1,.7,1.27v.83Z"/><path class="a" d="M52.84,146a1.5,1.5,0,0,1-.77-.21L4.88,117.6a1.5,1.5,0,0,1-.55-.57l-1-1.9a1.5,1.5,0,0,1-.18-.72V114l-.68-.42a1.5,1.5,0,0,1-.7-1.27v-.69l-.89-1.15a1.5,1.5,0,0,1-.31-1l.15-1.8-.62-2.16a1.51,1.51,0,0,1-.06-.41V103.7a1.5,1.5,0,0,1,.11-.56l.24-.6v-2.3a1.49,1.49,0,0,1,.1-.54l.78-2,.16-2.37s0-.08,0-.11L1.57,94a1.5,1.5,0,0,1,.28-.69l.83-1.11L3,90.79a1.51,1.51,0,0,1,.18-.46l1.21-2.07a1.5,1.5,0,0,1,.53-.53l47.17-28a1.56,1.56,0,0,1,.79-.21,1.4,1.4,0,0,1,.79.21l47.18,28a1.51,1.51,0,0,1,.53.53l1.21,2.07a1.5,1.5,0,0,1,.17.46l.28,1.39.83,1.11a1.5,1.5,0,0,1,.28.69l.17,1.21s0,.07,0,.11l.16,2.37.78,2a1.49,1.49,0,0,1,.1.54v2.3l.24.6a1.5,1.5,0,0,1,.11.56v1.38a1.51,1.51,0,0,1-.06.41l-.62,2.16.15,1.8a1.5,1.5,0,0,1-.31,1l-.89,1.15v.69a1.5,1.5,0,0,1-.7,1.27l-.68.42v.38a1.5,1.5,0,0,1-.18.72l-1,1.9a1.5,1.5,0,0,1-.55.57l-47.2,28.17A1.5,1.5,0,0,1,52.84,146ZM6.77,115.23l46.08,27.5,46.08-27.5.66-1.21v-.83a1.5,1.5,0,0,1,.7-1.27l.68-.42v-.38a1.5,1.5,0,0,1,.32-.92l.85-1.09-.12-1.49a1.5,1.5,0,0,1,.05-.54l.63-2.22V104l-.24-.6a1.5,1.5,0,0,1-.11-.56v-2.31l-.76-2a1.48,1.48,0,0,1-.1-.44l-.17-2.54-.11-.77-.81-1.07a1.5,1.5,0,0,1-.27-.61l-.3-1.48-.89-1.52L52.84,62.75,6.75,90.1l-.89,1.52-.3,1.48a1.5,1.5,0,0,1-.27.6l-.81,1.08-.11.77-.17,2.54a1.48,1.48,0,0,1-.1.44l-.76,2v2.31a1.5,1.5,0,0,1-.11.56L3,104v.88l.63,2.22a1.5,1.5,0,0,1,.05.54l-.12,1.49.85,1.09a1.5,1.5,0,0,1,.32.92v.38l.68.42a1.5,1.5,0,0,1,.7,1.27V114Z"/><path class="a" d="M160.44,146a1.5,1.5,0,0,1-.77-.21l-47.2-28.17a1.5,1.5,0,0,1-.55-.57l-1-1.9a1.5,1.5,0,0,1-.18-.72V114l-.68-.42a1.5,1.5,0,0,1-.7-1.27v-.69l-.89-1.15a1.5,1.5,0,0,1-.31-1l.15-1.8-.62-2.16a1.51,1.51,0,0,1-.06-.41V103.7a1.5,1.5,0,0,1,.11-.56l.24-.6v-2.3a1.49,1.49,0,0,1,.1-.54l.78-2L109,95.3s0-.07,0-.11l.17-1.21a1.5,1.5,0,0,1,.28-.69l.83-1.11.28-1.4a1.5,1.5,0,0,1,.18-.46L112,88.25a1.5,1.5,0,0,1,.53-.53l47.17-28a1.64,1.64,0,0,1,.79-.21,1.45,1.45,0,0,1,.79.21l47.17,28a1.51,1.51,0,0,1,.53.53l1.21,2.07a1.51,1.51,0,0,1,.17.46l.28,1.39.83,1.11a1.51,1.51,0,0,1,.29.69l.17,1.21v.11l.16,2.37.78,2a1.51,1.51,0,0,1,.1.54v2.3l.24.6a1.5,1.5,0,0,1,.11.56v1.38a1.52,1.52,0,0,1-.06.41l-.62,2.15.15,1.8a1.51,1.51,0,0,1-.31,1l-.89,1.15v.69a1.5,1.5,0,0,1-.7,1.27l-.68.42v.38a1.5,1.5,0,0,1-.18.72l-1,1.9a1.5,1.5,0,0,1-.55.57l-47.2,28.17A1.5,1.5,0,0,1,160.44,146Zm-46.08-30.74,46.08,27.5,46.08-27.5.66-1.21v-.83a1.5,1.5,0,0,1,.7-1.27l.68-.42v-.38a1.51,1.51,0,0,1,.32-.92l.85-1.09-.12-1.49a1.52,1.52,0,0,1,.05-.54l.63-2.22V104l-.24-.6a1.5,1.5,0,0,1-.11-.56v-2.31l-.76-2a1.53,1.53,0,0,1-.1-.44l-.17-2.54-.11-.77L208,93.71a1.51,1.51,0,0,1-.27-.61l-.3-1.48-.89-1.52-46.1-27.35L114.35,90.1l-.89,1.52-.3,1.48a1.5,1.5,0,0,1-.27.61l-.81,1.07-.11.77-.17,2.54a1.48,1.48,0,0,1-.1.44l-.76,2v2.31a1.5,1.5,0,0,1-.11.56l-.24.6v.88l.63,2.22a1.5,1.5,0,0,1,.05.54l-.12,1.49.85,1.09a1.5,1.5,0,0,1,.32.92v.38l.68.42a1.5,1.5,0,0,1,.7,1.27V114Z"/><path class="a" d="M106.84,205.84a1.5,1.5,0,0,1-.77-.21l-47.2-28.17a1.5,1.5,0,0,1-.73-1.29v-27.3a1.5,1.5,0,0,1,.73-1.29l47.17-28a1.56,1.56,0,0,1,.79-.21,1.45,1.45,0,0,1,.79.21l47.17,28a1.5,1.5,0,0,1,.73,1.29v27.3a1.5,1.5,0,0,1-.73,1.29l-47.2,28.17A1.5,1.5,0,0,1,106.84,205.84Zm-45.7-30.52,45.7,27.27,45.7-27.27v-25.6l-45.7-27.12-45.7,27.12Z"/></svg>