<svg class="logo" xmlns="http://www.w3.org/2000/svg" viewBox="0 0 297.3 190.9"><title>formos_logo</title><path class="a" d="M79.4,100a8.6,8.6,0,0,0-.1-1.6,7.69,7.69,0,0,0-6.7-7.1c-4.2-.4-7.4,1.7-8.3,5.8a14.4,14.4,0,0,0,0,6.2,7.49,7.49,0,0,0,11.4,4.5c2.8-1.8,3.6-4.6,3.7-7.8m-8.1,13.3c-7.4-.2-12.7-6-12.5-13.6s5.7-13.1,13-12.9,12.7,5.9,12.5,13.6-5.7,13.1-13,12.9"/><path class="a" d="M32.5,87.7c.1-2.2.1-4.1.3-6a7.9,7.9,0,0,1,9.9-6.6c.7.2,1,.4,1,1.1v3.3a24.3,24.3,0,0,0-2.7,0,3.44,3.44,0,0,0-3.3,3,43.35,43.35,0,0,0,0,5.1h5.8V92H37.7v20.5H32.6V92.1H28V87.7h4.5Z"/><path class="a" d="M220.1,93.8c-.1-.8-.1-1.9-.3-3-1.1-5.3-3.9-9.2-9.3-10.6s-10.1-.3-13.8,4.1c-2.9,3.4-3.4,7.5-3.1,11.8a13.2,13.2,0,0,0,19.8,10.8c4.8-2.7,6.5-7.3,6.7-13.1m5.2.4c-.1,9.7-6,17.1-15.2,18.8a18.35,18.35,0,0,1-21.8-17c-.3-4.9.6-9.5,3.5-13.5a18.5,18.5,0,0,1,19.3-6.9,18,18,0,0,1,13.8,14.9c.2,1.2.3,2.5.4,3.7"/><path class="a" d="M138.5,112.5h-4.8V87.8h4.5c.1.8.1,1.7.2,2.8a8.7,8.7,0,0,1,7.9-3.6,7.57,7.57,0,0,1,7.1,4.6c2-3.5,5.1-4.7,8.8-4.6a8,8,0,0,1,8,7.9c.3,5.8.1,11.7.1,17.6h-4.7c0-.5-.1-1-.1-1.4V97.5c0-4.1-1.7-6.1-5.1-6.2s-5.9,2.4-5.9,6.2c-.1,3.5,0,6.9,0,10.4v4.6h-4.8c0-.5-.1-1-.1-1.4V96.4c-.1-2.7-1.6-4.6-3.8-5-3.1-.5-5.7.7-6.6,3.3a9.12,9.12,0,0,0-.5,3.3c-.3,4.7-.2,9.6-.2,14.5"/><path class="a" d="M241.6,102.4l4.8-1.5a2.54,2.54,0,0,1,.2.7,9.06,9.06,0,0,0,13,6.3,5.39,5.39,0,0,0,3.3-5.2,5,5,0,0,0-3.4-4.9c-2.5-.9-5.2-1.3-7.8-2-5-1.2-8-4.4-8.4-9.1a9.75,9.75,0,0,1,2.2-7.1c4.5-5.7,14-6.4,19.3-1.3a10.65,10.65,0,0,1,3.1,5.7c-1.5.5-2.9,1-4.4,1.6a12.24,12.24,0,0,0-1-2.3,8.08,8.08,0,0,0-12-2.2,5.48,5.48,0,0,0-1.9,5.6,5.14,5.14,0,0,0,4,4c2,.5,3.9.9,5.9,1.3a18.26,18.26,0,0,1,3.3,1.1c3.4,1.5,5.8,3.9,6.3,7.8a10.19,10.19,0,0,1-4.3,9.9c-5.6,4.1-14.5,3.2-19.1-1.9a10,10,0,0,1-3.1-6.5"/><path class="a" d="M107.5,112.5h-4.8V87.8h4.8v4.1c2.2-3.6,5.1-5,9-4.5v5.1H114c-3.5.1-6,2.2-6.2,5.7-.2,4.2-.2,8.4-.2,12.5a9.72,9.72,0,0,0-.1,1.8"/><path class="a" d="M80,4.6A33.88,33.88,0,0,0,63,9.2l-41.5,24a34.1,34.1,0,0,0-17,29.5v58.7A34,34,0,0,0,30,154.3L148.2,185a34,34,0,0,0,8.4,1.1l60.5.3a33.61,33.61,0,0,0,17.2-4.6l41.4-23.9a34.1,34.1,0,0,0,17-29.5V69.3a34.05,34.05,0,0,0-25-32.8L155.7,5.8a34.24,34.24,0,0,0-9-1.2ZM217.2,190.9H217l-60.5-.3a38.06,38.06,0,0,1-9.5-1.2L28.8,158.6A38.52,38.52,0,0,1,0,121.3V62.6A38.76,38.76,0,0,1,19.3,29.2l41.5-24A38.53,38.53,0,0,1,80.1,0h66.6a39.2,39.2,0,0,1,10.2,1.4l112,30.7a38.73,38.73,0,0,1,28.4,37.2v59.1A38.76,38.76,0,0,1,278,161.8l-41.4,23.9a39.17,39.17,0,0,1-19.4,5.2"/></svg>
