<svg xmlns="http://www.w3.org/2000/svg" viewBox="0 0 366.2 235"><defs><style>.a{fill:#fff;}.b{fill:#ced0e8;}</style></defs><title>formos_how03</title><polygon class="a" points="282.9 222.7 282.9 210.7 207.3 210.7 207.3 139.5 183.3 139.5 183.3 210.7 107.7 210.7 107.7 222.7 282.9 222.7"/><path class="b" d="M282.9,224.2H107.7a1.5,1.5,0,0,1-1.5-1.5v-12a1.5,1.5,0,0,1,1.5-1.5h74.1V139.5a1.5,1.5,0,0,1,1.5-1.5h24a1.5,1.5,0,0,1,1.5,1.5v69.7h74.1a1.5,1.5,0,0,1,1.5,1.5v12A1.5,1.5,0,0,1,282.9,224.2Zm-173.7-3H281.4v-9H207.3a1.5,1.5,0,0,1-1.5-1.5V141h-21v69.7a1.5,1.5,0,0,1-1.5,1.5H109.2Z"/><rect class="a" x="25.9" y="1.5" width="338.8" height="190.37"/><path class="b" d="M364.7,193.37H25.9a1.5,1.5,0,0,1-1.5-1.5V1.5A1.5,1.5,0,0,1,25.9,0H364.7a1.5,1.5,0,0,1,1.5,1.5V191.87A1.5,1.5,0,0,1,364.7,193.37Zm-337.3-3H363.2V3H27.4Z"/><path class="a" d="M11.1,108.7s-9.6,0-9.6,9.6v100s0,9.6,9.6,9.6H152.17s9.6,0,9.6-9.6v-100s0-9.6-9.6-9.6Z"/><path class="b" d="M152.17,229.4H11.1c-11,0-11.1-11-11.1-11.1v-100c0-11,11-11.1,11.1-11.1H152.17c5.73,0,8.46,3.06,9.74,5.63a13.5,13.5,0,0,1,1.36,5.47v100c0,5.72-3.06,8.46-5.63,9.74A13.49,13.49,0,0,1,152.17,229.4ZM11.1,110.2c-.84,0-8.1.29-8.1,8.1v100c0,.82.28,8.1,8.1,8.1H152.17c.82,0,8.1-.28,8.1-8.1v-100c0-.82-.28-8.1-8.1-8.1H11.1Z"/><path class="a" d="M35.5,143.1s-9.6,0-9.6,9.6v71.2s0,9.6,9.6,9.6H64.83s9.6,0,9.6-9.6V152.7s0-9.6-9.6-9.6Z"/><path class="b" d="M64.83,235H35.5c-11,0-11.1-11-11.1-11.1V152.7c0-8.78,7.26-11.1,11.1-11.1H64.83c11,0,11.1,11,11.1,11.1v71.2C75.93,232.68,68.67,235,64.83,235ZM35.5,144.6c-.84,0-8.1.29-8.1,8.1v71.2c0,.82.28,8.1,8.1,8.1H64.83c.82,0,8.1-.28,8.1-8.1V152.7c0-.82-.28-8.1-8.1-8.1Z"/></svg>