<svg xmlns="http://www.w3.org/2000/svg" viewBox="0 0 38.48 79.97"><defs><style>.a{fill:#ced0e8;}</style></defs><title>formos_how04.svg</title><path class="a" d="M16.61,80a1.5,1.5,0,0,1-1.1-.48,58.07,58.07,0,0,1,0-79,1.5,1.5,0,0,1,2.2,2,55.07,55.07,0,0,0,0,74.94A1.5,1.5,0,0,1,16.61,80Z"/><path class="a" d="M26.79,69.79a1.5,1.5,0,0,1-1.12-.5,43.71,43.71,0,0,1,0-58.61,1.5,1.5,0,0,1,2.23,2,40.71,40.71,0,0,0,0,54.6,1.5,1.5,0,0,1-1.11,2.5Z"/><path class="a" d="M37,59.61a1.5,1.5,0,0,1-1.14-.53,29.43,29.43,0,0,1,0-38.19,1.5,1.5,0,0,1,2.29,1.94,26.43,26.43,0,0,0,0,34.3A1.5,1.5,0,0,1,37,59.61Z"/></svg>